%
M48
M72
T01C0.00787
T02C0.00984
T03C0.01181
T04C0.01378
T05C0.02756
T06C0.03200
T07C0.03937
T08C0.04000
T09C0.04400
T10C0.13000
%
T01
X320512Y201706
X324959Y267920
T02
X297918Y269526
X285961Y252810
X274882Y267806
X285961Y235094
X310925Y199140
X306131Y196911
T03
X322882Y167849
X215363Y180959
X193867Y161904
X191071Y161943
X188197Y161983
X185402Y161983
X182607Y162022
X179811Y162022
X177016Y162022
X174142Y162022
X175205Y159187
X172410Y159187
X172804Y156353
X172804Y153597
X170048Y153597
X170048Y156353
X170126Y150841
X172882Y150841
X175678Y150841
X175599Y153597
X175599Y156353
X178394Y156353
X178394Y153597
X178473Y150841
X181268Y150841
X181189Y153597
X181189Y156353
X183985Y156353
X183985Y153597
X186701Y153479
X186780Y150841
X184063Y150841
X183945Y148046
X181150Y148046
X178355Y148046
X175559Y148046
X172764Y148046
X170008Y148046
X170008Y145250
X172764Y145250
X172764Y142455
X170008Y142455
X175559Y142455
X175559Y145250
X178355Y145250
X178355Y142455
X181150Y142455
X183945Y142455
X183945Y145250
X181150Y145250
X186741Y145250
X189496Y145250
X189496Y142455
X186741Y142455
X192292Y142455
X195087Y142455
X197882Y142455
X197882Y145250
X195087Y145250
X192292Y145250
X192292Y148046
X195087Y148046
X195126Y150841
X195048Y153479
X197843Y153479
X197922Y150841
X200717Y150841
X200638Y153479
X200756Y156274
X197961Y156274
X195166Y156274
X192370Y156274
X189575Y156274
X186819Y156274
X186347Y159148
X183630Y159187
X180756Y159187
X178000Y159187
X178591Y164778
X175914Y164778
X181347Y164817
X184142Y164778
X186937Y164778
X189693Y164699
X189221Y159109
X192016Y159109
X194890Y159109
X192252Y153479
X192331Y150841
X189536Y150841
X189457Y153479
X189496Y148046
X186741Y148046
X197882Y148046
X200678Y148046
X200678Y145250
X200678Y142455
X175048Y126825
X401662Y258203
X265087Y344502
X254300Y340250
X398867Y384975
X424772Y385093
T04
X414072Y358252
X428670Y345014
X419988Y342230
X406906Y330266
X392056Y320605
X408309Y311424
X437331Y305644
X444024Y299739
X442485Y294443
X449996Y282739
X456622Y278479
X458048Y282715
X458197Y272967
X469615Y260369
X477552Y257140
X485678Y257617
X496430Y270711
X466071Y290290
X473075Y314947
X442843Y317061
X438906Y319817
X409378Y291865
X426307Y282809
X411741Y274935
X392056Y284384
X384969Y291471
X367252Y292258
X370796Y274148
X361626Y262124
X351244Y259250
X358307Y254821
X365878Y251896
X370181Y242396
X387367Y249880
X383394Y258006
X352292Y245408
X337477Y243443
X337552Y234483
X333512Y227258
X325874Y227652
X321304Y227030
X307965Y234542
X311390Y237254
X322374Y240404
X326764Y240081
X326386Y247613
X322260Y249207
X325126Y256431
X327087Y270494
X332382Y272109
X339378Y270683
X324658Y283195
X321489Y279471
X320835Y287006
X316402Y289821
X297567Y282416
X294162Y270361
X301898Y267628
X305048Y263518
X307654Y252152
X289174Y264309
X285957Y267502
X271398Y265743
X258166Y275928
X242843Y264306
X261741Y245408
X268615Y255998
X274355Y251884
X247296Y238187
X225126Y218243
X194556Y201687
X227095Y195014
X232804Y185605
X223158Y176117
X183788Y174148
X274343Y201554
X275532Y197998
X290941Y199896
X294374Y211849
X301130Y213624
X304256Y217097
X293737Y221337
X288449Y223077
X283729Y222546
X279433Y220274
X317028Y199546
X318906Y206825
X326307Y212337
X335540Y208723
X346465Y218207
X353122Y215451
X355501Y226381
X349536Y235565
X370567Y224476
X384181Y224148
X385437Y214038
X375839Y210057
X379063Y203282
X397567Y207219
X424284Y219128
X421848Y241165
X418280Y256693
X491662Y240683
X524883Y195135
X506552Y148022
X440270Y150365
X396386Y113124
X386544Y113124
X375520Y116274
X372764Y102888
X349837Y120709
X342995Y127632
X367867Y133534
X335513Y109667
X308197Y99739
X259378Y84384
X288950Y151251
X312279Y167486
X314496Y176510
X319496Y184620
X325382Y183534
X330307Y189699
X343859Y189998
X352229Y185640
X362601Y186369
X358272Y203170
X341268Y198317
X306878Y191817
X281426Y180841
X168040Y252101
X165284Y249345
X157410Y241077
X168040Y272967
X148355Y293046
X128837Y324591
X131800Y337357
X112776Y342578
X115753Y355121
X124320Y365787
X113137Y378894
X207685Y324046
X224339Y311550
X239300Y315880
X250969Y306778
X264103Y320211
X264103Y329660
X250508Y353467
X297800Y348644
X304260Y345014
X305835Y338715
X301898Y338715
X309772Y338715
X317646Y338715
X313709Y329660
X303079Y326904
X315768Y313866
X329457Y308400
X340874Y319817
X352685Y317061
X329457Y324935
X328276Y343439
X335363Y350526
X329063Y352101
X355441Y349345
X359378Y353282
X275481Y300488
X247067Y291254
X242843Y289502
X238906Y282416
X210882Y273719
X197174Y291865
X492449Y355644
X518800Y342259
X510166Y335172
X506516Y307369
X517252Y302101
X529555Y366708
T05
X438272Y249455
X438272Y229455
T06
X191248Y99034
X201248Y99034
X404579Y233648
X404579Y243648
T07
X539457Y246825
X549457Y246825
X549457Y236825
X539457Y236825
X539457Y226825
X549457Y226825
X549457Y216825
X539457Y216825
X539457Y206825
X549457Y206825
X549457Y196825
X539457Y196825
X539457Y256825
X549457Y256825
X549457Y266825
X539457Y266825
X539457Y276825
X549457Y276825
X549457Y286825
X539457Y286825
X539457Y296825
X549457Y296825
X549457Y306825
X539457Y306825
X539457Y316825
X549457Y316825
X549457Y326825
X539457Y326825
X539457Y336825
X549457Y336825
X549457Y346825
X539457Y346825
X539457Y356825
X549457Y356825
X549457Y366825
X539457Y366825
X519457Y366825
X509457Y366825
X499457Y366825
X489457Y366825
X479457Y366825
X469457Y366825
X459457Y366825
X449457Y366825
X439457Y366825
X429457Y366825
X419457Y366825
X409457Y366825
X399457Y366825
X389457Y366825
X379457Y366825
X369457Y366825
X359457Y366825
X349457Y366825
X339457Y366825
X329457Y366825
X319457Y366825
X309457Y366825
X299457Y366825
X289457Y366825
X279457Y366825
X269457Y366825
X259457Y366825
X249457Y366825
X239457Y366825
X229457Y366825
X219457Y366825
X209457Y366825
X199457Y366825
X189457Y366825
X179457Y366825
X169457Y366825
X159457Y366825
X149457Y366825
X139457Y366825
X139457Y376825
X149457Y376825
X159457Y376825
X169457Y376825
X179457Y376825
X189457Y376825
X199457Y376825
X209457Y376825
X219457Y376825
X229457Y376825
X239457Y376825
X249457Y376825
X259457Y376825
X269457Y376825
X279457Y376825
X289457Y376825
X299457Y376825
X309457Y376825
X319457Y376825
X329457Y376825
X339457Y376825
X349457Y376825
X359457Y376825
X369457Y376825
X379457Y376825
X389457Y376825
X399457Y376825
X409457Y376825
X419457Y376825
X429457Y376825
X439457Y376825
X449457Y376825
X459457Y376825
X469457Y376825
X479457Y376825
X489457Y376825
X499457Y376825
X509457Y376825
X519457Y376825
X207201Y188128
X193422Y188128
X179642Y188128
X165863Y188128
X152083Y188128
X138304Y188128
X124524Y188128
X110744Y188128
X99457Y216825
X89457Y216825
X89457Y226825
X99457Y226825
X99457Y236825
X89457Y236825
X89457Y246825
X99457Y246825
X99457Y256825
X89457Y256825
X89457Y266825
X99457Y266825
X99457Y276825
X89457Y276825
X89457Y286825
X99457Y286825
X99457Y296825
X89457Y296825
X89457Y306825
X99457Y306825
X99457Y316825
X89457Y316825
X89457Y326825
X99457Y326825
X99457Y336825
X89457Y336825
X89457Y346825
X99457Y346825
X99457Y356825
X89457Y356825
X89457Y366825
X99457Y366825
T08
X241662Y186510
X241662Y176510
X241662Y166510
X269221Y166510
X269221Y176510
X269221Y186510
X296780Y186510
X296780Y176510
X296780Y166510
X317335Y153219
X328004Y153294
X364142Y172573
X374142Y172573
X384142Y172573
X394142Y172573
X404142Y172573
X414142Y172573
X424142Y172573
X434142Y172573
X444276Y172573
X454276Y172573
X464276Y172573
X474276Y172573
X484276Y172573
X494276Y172573
X504276Y172573
X514276Y172573
X515284Y160762
X526126Y160581
X386285Y93221
X386285Y75421
X360685Y75421
X360685Y93221
X295370Y101258
X285370Y101258
T09
X250528Y140258
X240528Y140258
X230528Y140258
T10
X240528Y81258
M30
