G75*
%MOIN*%
%OFA0B0*%
%FSLAX25Y25*%
%IPPOS*%
%LPD*%
%AMOC8*
5,1,8,0,0,1.08239X$1,22.5*
%
%ADD10C,0.00000*%
%ADD11C,0.00800*%
%ADD12C,0.00300*%
%ADD13C,0.00787*%
%ADD14C,0.00100*%
%ADD15C,0.00500*%
%ADD16C,0.00600*%
%ADD17C,0.00700*%
%ADD18C,0.00400*%
%ADD19C,0.00010*%
D10*
X0234028Y0081258D02*
X0234030Y0081419D01*
X0234036Y0081579D01*
X0234046Y0081740D01*
X0234060Y0081900D01*
X0234078Y0082060D01*
X0234099Y0082219D01*
X0234125Y0082378D01*
X0234155Y0082536D01*
X0234188Y0082693D01*
X0234226Y0082850D01*
X0234267Y0083005D01*
X0234312Y0083159D01*
X0234361Y0083312D01*
X0234414Y0083464D01*
X0234470Y0083615D01*
X0234531Y0083764D01*
X0234594Y0083912D01*
X0234662Y0084058D01*
X0234733Y0084202D01*
X0234807Y0084344D01*
X0234885Y0084485D01*
X0234967Y0084623D01*
X0235052Y0084760D01*
X0235140Y0084894D01*
X0235232Y0085026D01*
X0235327Y0085156D01*
X0235425Y0085284D01*
X0235526Y0085409D01*
X0235630Y0085531D01*
X0235737Y0085651D01*
X0235847Y0085768D01*
X0235960Y0085883D01*
X0236076Y0085994D01*
X0236195Y0086103D01*
X0236316Y0086208D01*
X0236440Y0086311D01*
X0236566Y0086411D01*
X0236694Y0086507D01*
X0236825Y0086600D01*
X0236959Y0086690D01*
X0237094Y0086777D01*
X0237232Y0086860D01*
X0237371Y0086940D01*
X0237513Y0087016D01*
X0237656Y0087089D01*
X0237801Y0087158D01*
X0237948Y0087224D01*
X0238096Y0087286D01*
X0238246Y0087344D01*
X0238397Y0087399D01*
X0238550Y0087450D01*
X0238704Y0087497D01*
X0238859Y0087540D01*
X0239015Y0087579D01*
X0239171Y0087615D01*
X0239329Y0087646D01*
X0239487Y0087674D01*
X0239646Y0087698D01*
X0239806Y0087718D01*
X0239966Y0087734D01*
X0240126Y0087746D01*
X0240287Y0087754D01*
X0240448Y0087758D01*
X0240608Y0087758D01*
X0240769Y0087754D01*
X0240930Y0087746D01*
X0241090Y0087734D01*
X0241250Y0087718D01*
X0241410Y0087698D01*
X0241569Y0087674D01*
X0241727Y0087646D01*
X0241885Y0087615D01*
X0242041Y0087579D01*
X0242197Y0087540D01*
X0242352Y0087497D01*
X0242506Y0087450D01*
X0242659Y0087399D01*
X0242810Y0087344D01*
X0242960Y0087286D01*
X0243108Y0087224D01*
X0243255Y0087158D01*
X0243400Y0087089D01*
X0243543Y0087016D01*
X0243685Y0086940D01*
X0243824Y0086860D01*
X0243962Y0086777D01*
X0244097Y0086690D01*
X0244231Y0086600D01*
X0244362Y0086507D01*
X0244490Y0086411D01*
X0244616Y0086311D01*
X0244740Y0086208D01*
X0244861Y0086103D01*
X0244980Y0085994D01*
X0245096Y0085883D01*
X0245209Y0085768D01*
X0245319Y0085651D01*
X0245426Y0085531D01*
X0245530Y0085409D01*
X0245631Y0085284D01*
X0245729Y0085156D01*
X0245824Y0085026D01*
X0245916Y0084894D01*
X0246004Y0084760D01*
X0246089Y0084623D01*
X0246171Y0084485D01*
X0246249Y0084344D01*
X0246323Y0084202D01*
X0246394Y0084058D01*
X0246462Y0083912D01*
X0246525Y0083764D01*
X0246586Y0083615D01*
X0246642Y0083464D01*
X0246695Y0083312D01*
X0246744Y0083159D01*
X0246789Y0083005D01*
X0246830Y0082850D01*
X0246868Y0082693D01*
X0246901Y0082536D01*
X0246931Y0082378D01*
X0246957Y0082219D01*
X0246978Y0082060D01*
X0246996Y0081900D01*
X0247010Y0081740D01*
X0247020Y0081579D01*
X0247026Y0081419D01*
X0247028Y0081258D01*
X0247026Y0081097D01*
X0247020Y0080937D01*
X0247010Y0080776D01*
X0246996Y0080616D01*
X0246978Y0080456D01*
X0246957Y0080297D01*
X0246931Y0080138D01*
X0246901Y0079980D01*
X0246868Y0079823D01*
X0246830Y0079666D01*
X0246789Y0079511D01*
X0246744Y0079357D01*
X0246695Y0079204D01*
X0246642Y0079052D01*
X0246586Y0078901D01*
X0246525Y0078752D01*
X0246462Y0078604D01*
X0246394Y0078458D01*
X0246323Y0078314D01*
X0246249Y0078172D01*
X0246171Y0078031D01*
X0246089Y0077893D01*
X0246004Y0077756D01*
X0245916Y0077622D01*
X0245824Y0077490D01*
X0245729Y0077360D01*
X0245631Y0077232D01*
X0245530Y0077107D01*
X0245426Y0076985D01*
X0245319Y0076865D01*
X0245209Y0076748D01*
X0245096Y0076633D01*
X0244980Y0076522D01*
X0244861Y0076413D01*
X0244740Y0076308D01*
X0244616Y0076205D01*
X0244490Y0076105D01*
X0244362Y0076009D01*
X0244231Y0075916D01*
X0244097Y0075826D01*
X0243962Y0075739D01*
X0243824Y0075656D01*
X0243685Y0075576D01*
X0243543Y0075500D01*
X0243400Y0075427D01*
X0243255Y0075358D01*
X0243108Y0075292D01*
X0242960Y0075230D01*
X0242810Y0075172D01*
X0242659Y0075117D01*
X0242506Y0075066D01*
X0242352Y0075019D01*
X0242197Y0074976D01*
X0242041Y0074937D01*
X0241885Y0074901D01*
X0241727Y0074870D01*
X0241569Y0074842D01*
X0241410Y0074818D01*
X0241250Y0074798D01*
X0241090Y0074782D01*
X0240930Y0074770D01*
X0240769Y0074762D01*
X0240608Y0074758D01*
X0240448Y0074758D01*
X0240287Y0074762D01*
X0240126Y0074770D01*
X0239966Y0074782D01*
X0239806Y0074798D01*
X0239646Y0074818D01*
X0239487Y0074842D01*
X0239329Y0074870D01*
X0239171Y0074901D01*
X0239015Y0074937D01*
X0238859Y0074976D01*
X0238704Y0075019D01*
X0238550Y0075066D01*
X0238397Y0075117D01*
X0238246Y0075172D01*
X0238096Y0075230D01*
X0237948Y0075292D01*
X0237801Y0075358D01*
X0237656Y0075427D01*
X0237513Y0075500D01*
X0237371Y0075576D01*
X0237232Y0075656D01*
X0237094Y0075739D01*
X0236959Y0075826D01*
X0236825Y0075916D01*
X0236694Y0076009D01*
X0236566Y0076105D01*
X0236440Y0076205D01*
X0236316Y0076308D01*
X0236195Y0076413D01*
X0236076Y0076522D01*
X0235960Y0076633D01*
X0235847Y0076748D01*
X0235737Y0076865D01*
X0235630Y0076985D01*
X0235526Y0077107D01*
X0235425Y0077232D01*
X0235327Y0077360D01*
X0235232Y0077490D01*
X0235140Y0077622D01*
X0235052Y0077756D01*
X0234967Y0077893D01*
X0234885Y0078031D01*
X0234807Y0078172D01*
X0234733Y0078314D01*
X0234662Y0078458D01*
X0234594Y0078604D01*
X0234531Y0078752D01*
X0234470Y0078901D01*
X0234414Y0079052D01*
X0234361Y0079204D01*
X0234312Y0079357D01*
X0234267Y0079511D01*
X0234226Y0079666D01*
X0234188Y0079823D01*
X0234155Y0079980D01*
X0234125Y0080138D01*
X0234099Y0080297D01*
X0234078Y0080456D01*
X0234060Y0080616D01*
X0234046Y0080776D01*
X0234036Y0080937D01*
X0234030Y0081097D01*
X0234028Y0081258D01*
X0564496Y0192258D02*
X0564256Y0393483D01*
X0072052Y0393128D01*
D11*
X0072370Y0389109D02*
X0072370Y0192258D01*
X0221613Y0317857D02*
X0225570Y0317857D01*
X0225570Y0318057D02*
X0225572Y0318155D01*
X0225578Y0318253D01*
X0225587Y0318351D01*
X0225601Y0318448D01*
X0225618Y0318545D01*
X0225639Y0318641D01*
X0225664Y0318736D01*
X0225692Y0318830D01*
X0225725Y0318922D01*
X0225760Y0319014D01*
X0225800Y0319104D01*
X0225842Y0319192D01*
X0225889Y0319279D01*
X0225938Y0319363D01*
X0225991Y0319446D01*
X0226047Y0319526D01*
X0226107Y0319605D01*
X0226169Y0319681D01*
X0226234Y0319754D01*
X0226302Y0319825D01*
X0226373Y0319893D01*
X0226446Y0319958D01*
X0226522Y0320020D01*
X0226601Y0320080D01*
X0226681Y0320136D01*
X0226764Y0320189D01*
X0226848Y0320238D01*
X0226935Y0320285D01*
X0227023Y0320327D01*
X0227113Y0320367D01*
X0227205Y0320402D01*
X0227297Y0320435D01*
X0227391Y0320463D01*
X0227486Y0320488D01*
X0227582Y0320509D01*
X0227679Y0320526D01*
X0227776Y0320540D01*
X0227874Y0320549D01*
X0227972Y0320555D01*
X0228070Y0320557D01*
X0228168Y0320555D01*
X0228266Y0320549D01*
X0228364Y0320540D01*
X0228461Y0320526D01*
X0228558Y0320509D01*
X0228654Y0320488D01*
X0228749Y0320463D01*
X0228843Y0320435D01*
X0228935Y0320402D01*
X0229027Y0320367D01*
X0229117Y0320327D01*
X0229205Y0320285D01*
X0229292Y0320238D01*
X0229376Y0320189D01*
X0229459Y0320136D01*
X0229539Y0320080D01*
X0229618Y0320020D01*
X0229694Y0319958D01*
X0229767Y0319893D01*
X0229838Y0319825D01*
X0229906Y0319754D01*
X0229971Y0319681D01*
X0230033Y0319605D01*
X0230093Y0319526D01*
X0230149Y0319446D01*
X0230202Y0319363D01*
X0230251Y0319279D01*
X0230298Y0319192D01*
X0230340Y0319104D01*
X0230380Y0319014D01*
X0230415Y0318922D01*
X0230448Y0318830D01*
X0230476Y0318736D01*
X0230501Y0318641D01*
X0230522Y0318545D01*
X0230539Y0318448D01*
X0230553Y0318351D01*
X0230562Y0318253D01*
X0230568Y0318155D01*
X0230570Y0318057D01*
X0230570Y0317857D02*
X0233889Y0317857D01*
X0233939Y0317857D02*
X0234020Y0317850D01*
X0234101Y0317846D01*
X0234182Y0317847D01*
X0234264Y0317851D01*
X0234344Y0317859D01*
X0234425Y0317871D01*
X0234505Y0317886D01*
X0234584Y0317906D01*
X0234662Y0317929D01*
X0234738Y0317956D01*
X0234814Y0317986D01*
X0234888Y0318020D01*
X0234960Y0318058D01*
X0235030Y0318099D01*
X0235098Y0318143D01*
X0235164Y0318190D01*
X0235228Y0318241D01*
X0235289Y0318294D01*
X0235348Y0318351D01*
X0235404Y0318410D01*
X0235457Y0318471D01*
X0235507Y0318535D01*
X0235554Y0318602D01*
X0235598Y0318670D01*
X0235638Y0318741D01*
X0235675Y0318813D01*
X0235709Y0318887D01*
X0235738Y0318963D01*
X0235765Y0319040D01*
X0235787Y0319118D01*
X0235806Y0319197D01*
X0235821Y0319277D01*
X0235833Y0319358D01*
X0235832Y0319357D02*
X0235832Y0337757D01*
X0235833Y0337758D02*
X0235831Y0337834D01*
X0235825Y0337909D01*
X0235816Y0337985D01*
X0235802Y0338060D01*
X0235785Y0338134D01*
X0235764Y0338207D01*
X0235740Y0338279D01*
X0235712Y0338349D01*
X0235680Y0338418D01*
X0235645Y0338486D01*
X0235606Y0338551D01*
X0235564Y0338615D01*
X0235519Y0338676D01*
X0235471Y0338735D01*
X0235420Y0338791D01*
X0235366Y0338845D01*
X0235310Y0338896D01*
X0235251Y0338944D01*
X0235190Y0338989D01*
X0235126Y0339031D01*
X0235061Y0339070D01*
X0234993Y0339105D01*
X0234924Y0339137D01*
X0234854Y0339165D01*
X0234782Y0339189D01*
X0234709Y0339210D01*
X0234635Y0339227D01*
X0234560Y0339241D01*
X0234484Y0339250D01*
X0234409Y0339256D01*
X0234333Y0339258D01*
X0234332Y0339257D02*
X0222007Y0339257D01*
X0221936Y0339266D01*
X0221865Y0339271D01*
X0221793Y0339272D01*
X0221722Y0339269D01*
X0221651Y0339262D01*
X0221580Y0339252D01*
X0221511Y0339238D01*
X0221441Y0339219D01*
X0221373Y0339198D01*
X0221307Y0339172D01*
X0221242Y0339143D01*
X0221178Y0339111D01*
X0221116Y0339075D01*
X0221057Y0339036D01*
X0220999Y0338993D01*
X0220944Y0338948D01*
X0220892Y0338899D01*
X0220842Y0338848D01*
X0220795Y0338795D01*
X0220751Y0338738D01*
X0220710Y0338680D01*
X0220672Y0338619D01*
X0220638Y0338557D01*
X0220607Y0338492D01*
X0220580Y0338426D01*
X0220556Y0338359D01*
X0220536Y0338291D01*
X0220519Y0338221D01*
X0220507Y0338151D01*
X0220507Y0319357D01*
X0220498Y0319287D01*
X0220493Y0319215D01*
X0220492Y0319144D01*
X0220495Y0319073D01*
X0220502Y0319002D01*
X0220512Y0318931D01*
X0220526Y0318861D01*
X0220544Y0318792D01*
X0220566Y0318724D01*
X0220592Y0318657D01*
X0220621Y0318592D01*
X0220653Y0318529D01*
X0220689Y0318467D01*
X0220728Y0318407D01*
X0220771Y0318350D01*
X0220816Y0318295D01*
X0220864Y0318242D01*
X0220916Y0318192D01*
X0220969Y0318145D01*
X0221025Y0318101D01*
X0221084Y0318061D01*
X0221145Y0318023D01*
X0221207Y0317989D01*
X0221271Y0317958D01*
X0221337Y0317930D01*
X0221405Y0317907D01*
X0221473Y0317887D01*
X0221543Y0317870D01*
X0221613Y0317858D01*
X0072370Y0192258D02*
X0076315Y0186329D01*
X0080403Y0180498D01*
X0084631Y0174767D01*
X0088997Y0169141D01*
X0093498Y0163623D01*
X0098132Y0158215D01*
X0102896Y0152922D01*
X0107788Y0147746D01*
X0112803Y0142690D01*
X0117940Y0137758D01*
X0123195Y0132951D01*
X0128565Y0128274D01*
X0134047Y0123729D01*
X0139638Y0119318D01*
X0145335Y0115044D01*
X0151133Y0110910D01*
X0157031Y0106918D01*
X0163023Y0103070D01*
X0169107Y0099369D01*
X0175280Y0095817D01*
X0181536Y0092416D01*
X0187874Y0089167D01*
X0194289Y0086074D01*
X0200776Y0083137D01*
X0207333Y0080359D01*
X0213956Y0077741D01*
X0220640Y0075284D01*
X0227382Y0072991D01*
X0234178Y0070862D01*
X0241024Y0068898D01*
X0247915Y0067101D01*
X0254848Y0065473D01*
X0261818Y0064013D01*
X0268821Y0062723D01*
X0275854Y0061603D01*
X0282912Y0060655D01*
X0289991Y0059878D01*
X0297087Y0059273D01*
X0304195Y0058841D01*
X0311312Y0058581D01*
X0318433Y0058495D01*
X0325554Y0058581D01*
X0332671Y0058841D01*
X0339779Y0059273D01*
X0346875Y0059878D01*
X0353954Y0060655D01*
X0361012Y0061603D01*
X0368045Y0062723D01*
X0375048Y0064013D01*
X0382018Y0065473D01*
X0388951Y0067101D01*
X0395842Y0068898D01*
X0402688Y0070862D01*
X0409484Y0072991D01*
X0416226Y0075284D01*
X0422910Y0077741D01*
X0429533Y0080359D01*
X0436090Y0083137D01*
X0442577Y0086074D01*
X0448992Y0089167D01*
X0455330Y0092416D01*
X0461586Y0095817D01*
X0467759Y0099369D01*
X0473843Y0103070D01*
X0479835Y0106918D01*
X0485733Y0110910D01*
X0491531Y0115044D01*
X0497228Y0119318D01*
X0502819Y0123729D01*
X0508301Y0128274D01*
X0513671Y0132951D01*
X0518926Y0137758D01*
X0524063Y0142690D01*
X0529078Y0147746D01*
X0533970Y0152922D01*
X0538734Y0158215D01*
X0543368Y0163623D01*
X0547869Y0169141D01*
X0552235Y0174767D01*
X0556463Y0180498D01*
X0560551Y0186329D01*
X0564496Y0192258D01*
X0528725Y0301506D02*
X0525575Y0301506D01*
X0528725Y0301506D02*
X0528725Y0303869D01*
X0528725Y0310168D02*
X0528725Y0312530D01*
X0525575Y0312530D01*
X0524957Y0314829D02*
X0528107Y0314829D01*
X0528107Y0317191D01*
X0528107Y0323491D02*
X0528107Y0325853D01*
X0524957Y0325853D01*
D12*
X0329062Y0147217D02*
X0329062Y0144315D01*
X0330997Y0144315D01*
X0328051Y0144798D02*
X0327567Y0144315D01*
X0326599Y0144315D01*
X0326116Y0144798D01*
X0326116Y0146733D01*
X0326599Y0147217D01*
X0327567Y0147217D01*
X0328051Y0146733D01*
X0325104Y0146733D02*
X0324620Y0147217D01*
X0323653Y0147217D01*
X0323169Y0146733D01*
X0323169Y0146250D01*
X0323653Y0145766D01*
X0324620Y0145766D01*
X0325104Y0145282D01*
X0325104Y0144798D01*
X0324620Y0144315D01*
X0323653Y0144315D01*
X0323169Y0144798D01*
X0320107Y0145514D02*
X0318172Y0145514D01*
X0318172Y0145998D02*
X0319140Y0146965D01*
X0320107Y0145998D01*
X0320107Y0144063D01*
X0318172Y0144063D02*
X0318172Y0145998D01*
X0317161Y0146481D02*
X0316677Y0146965D01*
X0315226Y0146965D01*
X0315226Y0144063D01*
X0316677Y0144063D01*
X0317161Y0144546D01*
X0317161Y0146481D01*
X0314214Y0146481D02*
X0313731Y0146965D01*
X0312763Y0146965D01*
X0312279Y0146481D01*
X0312279Y0145998D01*
X0312763Y0145514D01*
X0313731Y0145514D01*
X0314214Y0145030D01*
X0314214Y0144546D01*
X0313731Y0144063D01*
X0312763Y0144063D01*
X0312279Y0144546D01*
D13*
X0564496Y0192258D02*
X0564496Y0393046D01*
X0072370Y0393046D01*
X0072370Y0389109D01*
D14*
X0232475Y0296182D02*
X0233476Y0296182D01*
X0233949Y0296182D02*
X0234950Y0296182D01*
X0234449Y0296182D02*
X0234449Y0297684D01*
X0234950Y0297183D01*
X0235422Y0297433D02*
X0235672Y0297684D01*
X0236173Y0297684D01*
X0236423Y0297433D01*
X0236423Y0296432D01*
X0236173Y0296182D01*
X0235672Y0296182D01*
X0235422Y0296432D01*
X0233476Y0297183D02*
X0232976Y0297684D01*
X0232976Y0296182D01*
X0234043Y0281475D02*
X0234043Y0281225D01*
X0235044Y0280224D01*
X0235044Y0279974D01*
X0235516Y0280224D02*
X0235767Y0279974D01*
X0236267Y0279974D01*
X0236517Y0280224D01*
X0236517Y0281225D01*
X0236267Y0281475D01*
X0235767Y0281475D01*
X0235516Y0281225D01*
X0235044Y0281475D02*
X0234043Y0281475D01*
X0233875Y0264853D02*
X0234376Y0264853D01*
X0234626Y0264603D01*
X0233875Y0264853D02*
X0233625Y0264603D01*
X0233625Y0264352D01*
X0234626Y0263352D01*
X0233625Y0263352D01*
X0235098Y0263352D02*
X0236099Y0263352D01*
X0235599Y0263352D02*
X0235599Y0264853D01*
X0236099Y0264352D01*
X0236572Y0264603D02*
X0236822Y0264853D01*
X0237322Y0264853D01*
X0237572Y0264603D01*
X0237572Y0263602D01*
X0237322Y0263352D01*
X0236822Y0263352D01*
X0236572Y0263602D01*
X0236016Y0248195D02*
X0236016Y0246694D01*
X0235516Y0246694D02*
X0236517Y0246694D01*
X0236989Y0246944D02*
X0237239Y0246694D01*
X0237740Y0246694D01*
X0237990Y0246944D01*
X0237990Y0247945D01*
X0237740Y0248195D01*
X0237239Y0248195D01*
X0236989Y0247945D01*
X0236517Y0247695D02*
X0236016Y0248195D01*
X0235043Y0247945D02*
X0234793Y0248195D01*
X0234293Y0248195D01*
X0234042Y0247945D01*
X0234042Y0247695D01*
X0234293Y0247445D01*
X0234042Y0247195D01*
X0234042Y0246944D01*
X0234293Y0246694D01*
X0234793Y0246694D01*
X0235043Y0246944D01*
X0234543Y0247445D02*
X0234293Y0247445D01*
X0234839Y0230577D02*
X0234839Y0229076D01*
X0235339Y0229076D02*
X0234338Y0229076D01*
X0233866Y0229827D02*
X0232865Y0229827D01*
X0233115Y0230577D02*
X0233866Y0229827D01*
X0233115Y0230577D02*
X0233115Y0229076D01*
X0234839Y0230577D02*
X0235339Y0230077D01*
X0235812Y0230327D02*
X0236062Y0230577D01*
X0236562Y0230577D01*
X0236813Y0230327D01*
X0236813Y0229326D01*
X0236562Y0229076D01*
X0236062Y0229076D01*
X0235812Y0229326D01*
X0235731Y0213376D02*
X0236232Y0213376D01*
X0236482Y0213126D01*
X0236482Y0212125D01*
X0236232Y0211875D01*
X0235731Y0211875D01*
X0235481Y0212125D01*
X0235009Y0212125D02*
X0235009Y0212376D01*
X0234758Y0212626D01*
X0234258Y0212626D01*
X0234008Y0212376D01*
X0234008Y0212125D01*
X0234258Y0211875D01*
X0234758Y0211875D01*
X0235009Y0212125D01*
X0234758Y0212626D02*
X0235009Y0212876D01*
X0235009Y0213126D01*
X0234758Y0213376D01*
X0234258Y0213376D01*
X0234008Y0213126D01*
X0234008Y0212876D01*
X0234258Y0212626D01*
X0235481Y0213126D02*
X0235731Y0213376D01*
X0294256Y0298769D02*
X0295257Y0298769D01*
X0294256Y0299770D01*
X0294256Y0300020D01*
X0294506Y0300270D01*
X0295006Y0300270D01*
X0295257Y0300020D01*
X0295729Y0300020D02*
X0295979Y0300270D01*
X0296480Y0300270D01*
X0296730Y0300020D01*
X0296730Y0299019D01*
X0296480Y0298769D01*
X0295979Y0298769D01*
X0295729Y0299019D01*
X0295621Y0316663D02*
X0295371Y0316913D01*
X0295621Y0316663D02*
X0296121Y0316663D01*
X0296372Y0316913D01*
X0296372Y0317914D01*
X0296121Y0318164D01*
X0295621Y0318164D01*
X0295371Y0317914D01*
X0294898Y0317663D02*
X0294398Y0318164D01*
X0294398Y0316663D01*
X0294898Y0316663D02*
X0293898Y0316663D01*
X0428062Y0209416D02*
X0429063Y0209416D01*
X0429063Y0208665D01*
X0428563Y0208915D01*
X0428312Y0208915D01*
X0428062Y0208665D01*
X0428062Y0208165D01*
X0428312Y0207915D01*
X0428813Y0207915D01*
X0429063Y0208165D01*
X0429535Y0207915D02*
X0430536Y0207915D01*
X0430036Y0207915D02*
X0430036Y0209416D01*
X0430536Y0208915D01*
X0431009Y0209166D02*
X0431259Y0209416D01*
X0431759Y0209416D01*
X0432009Y0209166D01*
X0432009Y0208165D01*
X0431759Y0207915D01*
X0431259Y0207915D01*
X0431009Y0208165D01*
X0517647Y0290356D02*
X0517897Y0290106D01*
X0518398Y0290106D01*
X0518648Y0290356D01*
X0519120Y0290106D02*
X0520121Y0290106D01*
X0519120Y0291107D01*
X0519120Y0291357D01*
X0519371Y0291607D01*
X0519871Y0291607D01*
X0520121Y0291357D01*
X0520594Y0291357D02*
X0520594Y0290857D01*
X0520844Y0290606D01*
X0521595Y0290606D01*
X0521595Y0290106D02*
X0521595Y0291607D01*
X0520844Y0291607D01*
X0520594Y0291357D01*
X0521094Y0290606D02*
X0520594Y0290106D01*
X0518648Y0291357D02*
X0518398Y0291607D01*
X0517897Y0291607D01*
X0517647Y0291357D01*
X0517647Y0291107D01*
X0517897Y0290857D01*
X0517647Y0290606D01*
X0517647Y0290356D01*
X0517897Y0290857D02*
X0518148Y0290857D01*
X0512567Y0296907D02*
X0512567Y0297657D01*
X0512317Y0297908D01*
X0511817Y0297908D01*
X0511567Y0297657D01*
X0511567Y0296907D01*
X0511567Y0297407D02*
X0511066Y0297908D01*
X0511066Y0298380D02*
X0512067Y0299381D01*
X0512317Y0299381D01*
X0512567Y0299131D01*
X0512567Y0298630D01*
X0512317Y0298380D01*
X0511066Y0298380D02*
X0511066Y0299381D01*
X0511066Y0299853D02*
X0512067Y0300854D01*
X0512317Y0300854D01*
X0512567Y0300604D01*
X0512567Y0300103D01*
X0512317Y0299853D01*
X0511066Y0299853D02*
X0511066Y0300854D01*
X0511066Y0296907D02*
X0512567Y0296907D01*
X0533019Y0304068D02*
X0533269Y0303818D01*
X0534270Y0303818D01*
X0534520Y0304068D01*
X0534520Y0304569D01*
X0534270Y0304819D01*
X0533269Y0304819D01*
X0533019Y0304569D01*
X0533019Y0304068D01*
X0533519Y0304319D02*
X0533019Y0304819D01*
X0533019Y0305291D02*
X0534020Y0306292D01*
X0534270Y0306292D01*
X0534520Y0306042D01*
X0534520Y0305542D01*
X0534270Y0305291D01*
X0533019Y0305291D02*
X0533019Y0306292D01*
X0532651Y0317141D02*
X0532401Y0317391D01*
X0532401Y0317892D01*
X0532651Y0318142D01*
X0533652Y0318142D01*
X0533902Y0317892D01*
X0533902Y0317391D01*
X0533652Y0317141D01*
X0532651Y0317141D01*
X0532901Y0317641D02*
X0532401Y0318142D01*
X0532401Y0318614D02*
X0532401Y0319615D01*
X0532401Y0319115D02*
X0533902Y0319115D01*
X0533402Y0318614D01*
X0520882Y0325275D02*
X0520882Y0326776D01*
X0520131Y0326776D01*
X0519881Y0326526D01*
X0519881Y0326026D01*
X0520131Y0325776D01*
X0520882Y0325776D01*
X0520382Y0325776D02*
X0519881Y0325275D01*
X0519409Y0325275D02*
X0518408Y0326276D01*
X0518408Y0326526D01*
X0518658Y0326776D01*
X0519159Y0326776D01*
X0519409Y0326526D01*
X0519409Y0325275D02*
X0518408Y0325275D01*
X0517935Y0325275D02*
X0516935Y0325275D01*
X0517435Y0325275D02*
X0517435Y0326776D01*
X0517935Y0326276D01*
X0513134Y0322757D02*
X0513134Y0322257D01*
X0512884Y0322007D01*
X0511883Y0322007D01*
X0512884Y0323008D01*
X0511883Y0323008D01*
X0511633Y0322757D01*
X0511633Y0322257D01*
X0511883Y0322007D01*
X0511633Y0321534D02*
X0511633Y0320533D01*
X0512634Y0321534D01*
X0512884Y0321534D01*
X0513134Y0321284D01*
X0513134Y0320784D01*
X0512884Y0320533D01*
X0512884Y0320061D02*
X0512384Y0320061D01*
X0512133Y0319811D01*
X0512133Y0319060D01*
X0511633Y0319060D02*
X0513134Y0319060D01*
X0513134Y0319811D01*
X0512884Y0320061D01*
X0512133Y0319561D02*
X0511633Y0320061D01*
X0513134Y0322757D02*
X0512884Y0323008D01*
D15*
X0349813Y0303504D02*
X0349813Y0302236D01*
X0349496Y0301919D01*
X0348862Y0301919D01*
X0348546Y0302236D01*
X0347603Y0301919D02*
X0346336Y0301919D01*
X0346970Y0301919D02*
X0346970Y0303821D01*
X0347603Y0303187D01*
X0348546Y0303504D02*
X0348862Y0303821D01*
X0349496Y0303821D01*
X0349813Y0303504D01*
X0345394Y0303504D02*
X0345077Y0303821D01*
X0344443Y0303821D01*
X0344126Y0303504D01*
X0345394Y0302236D01*
X0345077Y0301919D01*
X0344443Y0301919D01*
X0344126Y0302236D01*
X0344126Y0303504D01*
X0345394Y0303504D02*
X0345394Y0302236D01*
X0345111Y0285301D02*
X0344794Y0284984D01*
X0344794Y0284667D01*
X0345111Y0284350D01*
X0344794Y0284033D01*
X0344794Y0283717D01*
X0345111Y0283400D01*
X0345745Y0283400D01*
X0346061Y0283717D01*
X0345428Y0284350D02*
X0345111Y0284350D01*
X0345111Y0285301D02*
X0345745Y0285301D01*
X0346061Y0284984D01*
X0347004Y0284984D02*
X0347320Y0285301D01*
X0347954Y0285301D01*
X0348271Y0284984D01*
X0348271Y0283717D01*
X0347954Y0283400D01*
X0347320Y0283400D01*
X0347004Y0283717D01*
X0230130Y0314224D02*
X0229813Y0313907D01*
X0229179Y0313907D01*
X0228862Y0314224D01*
X0228862Y0315809D01*
X0227920Y0315492D02*
X0227603Y0315809D01*
X0226969Y0315809D01*
X0226652Y0315492D01*
X0226652Y0315175D01*
X0227920Y0313907D01*
X0226652Y0313907D01*
X0230130Y0314224D02*
X0230130Y0315809D01*
D16*
X0346811Y0141444D02*
X0416311Y0141444D01*
X0416311Y0112206D01*
X0346811Y0112206D01*
X0346811Y0141444D01*
X0410511Y0114425D02*
X0410513Y0114517D01*
X0410519Y0114608D01*
X0410529Y0114699D01*
X0410543Y0114790D01*
X0410561Y0114880D01*
X0410583Y0114969D01*
X0410608Y0115056D01*
X0410638Y0115143D01*
X0410671Y0115229D01*
X0410708Y0115312D01*
X0410748Y0115395D01*
X0410792Y0115475D01*
X0410840Y0115553D01*
X0410891Y0115630D01*
X0410945Y0115703D01*
X0411002Y0115775D01*
X0411063Y0115844D01*
X0411126Y0115910D01*
X0411192Y0115973D01*
X0411261Y0116034D01*
X0411333Y0116091D01*
X0411406Y0116145D01*
X0411483Y0116196D01*
X0411561Y0116244D01*
X0411641Y0116288D01*
X0411724Y0116328D01*
X0411807Y0116365D01*
X0411893Y0116398D01*
X0411980Y0116428D01*
X0412067Y0116453D01*
X0412156Y0116475D01*
X0412246Y0116493D01*
X0412337Y0116507D01*
X0412428Y0116517D01*
X0412519Y0116523D01*
X0412611Y0116525D01*
X0412703Y0116523D01*
X0412794Y0116517D01*
X0412885Y0116507D01*
X0412976Y0116493D01*
X0413066Y0116475D01*
X0413155Y0116453D01*
X0413242Y0116428D01*
X0413329Y0116398D01*
X0413415Y0116365D01*
X0413498Y0116328D01*
X0413581Y0116288D01*
X0413661Y0116244D01*
X0413739Y0116196D01*
X0413816Y0116145D01*
X0413889Y0116091D01*
X0413961Y0116034D01*
X0414030Y0115973D01*
X0414096Y0115910D01*
X0414159Y0115844D01*
X0414220Y0115775D01*
X0414277Y0115703D01*
X0414331Y0115630D01*
X0414382Y0115553D01*
X0414430Y0115475D01*
X0414474Y0115395D01*
X0414514Y0115312D01*
X0414551Y0115229D01*
X0414584Y0115143D01*
X0414614Y0115056D01*
X0414639Y0114969D01*
X0414661Y0114880D01*
X0414679Y0114790D01*
X0414693Y0114699D01*
X0414703Y0114608D01*
X0414709Y0114517D01*
X0414711Y0114425D01*
X0414709Y0114333D01*
X0414703Y0114242D01*
X0414693Y0114151D01*
X0414679Y0114060D01*
X0414661Y0113970D01*
X0414639Y0113881D01*
X0414614Y0113794D01*
X0414584Y0113707D01*
X0414551Y0113621D01*
X0414514Y0113538D01*
X0414474Y0113455D01*
X0414430Y0113375D01*
X0414382Y0113297D01*
X0414331Y0113220D01*
X0414277Y0113147D01*
X0414220Y0113075D01*
X0414159Y0113006D01*
X0414096Y0112940D01*
X0414030Y0112877D01*
X0413961Y0112816D01*
X0413889Y0112759D01*
X0413816Y0112705D01*
X0413739Y0112654D01*
X0413661Y0112606D01*
X0413581Y0112562D01*
X0413498Y0112522D01*
X0413415Y0112485D01*
X0413329Y0112452D01*
X0413242Y0112422D01*
X0413155Y0112397D01*
X0413066Y0112375D01*
X0412976Y0112357D01*
X0412885Y0112343D01*
X0412794Y0112333D01*
X0412703Y0112327D01*
X0412611Y0112325D01*
X0412519Y0112327D01*
X0412428Y0112333D01*
X0412337Y0112343D01*
X0412246Y0112357D01*
X0412156Y0112375D01*
X0412067Y0112397D01*
X0411980Y0112422D01*
X0411893Y0112452D01*
X0411807Y0112485D01*
X0411724Y0112522D01*
X0411641Y0112562D01*
X0411561Y0112606D01*
X0411483Y0112654D01*
X0411406Y0112705D01*
X0411333Y0112759D01*
X0411261Y0112816D01*
X0411192Y0112877D01*
X0411126Y0112940D01*
X0411063Y0113006D01*
X0411002Y0113075D01*
X0410945Y0113147D01*
X0410891Y0113220D01*
X0410840Y0113297D01*
X0410792Y0113375D01*
X0410748Y0113455D01*
X0410708Y0113538D01*
X0410671Y0113621D01*
X0410638Y0113707D01*
X0410608Y0113794D01*
X0410583Y0113881D01*
X0410561Y0113970D01*
X0410543Y0114060D01*
X0410529Y0114151D01*
X0410519Y0114242D01*
X0410513Y0114333D01*
X0410511Y0114425D01*
D17*
X0417961Y0113277D02*
X0417961Y0111175D01*
X0417961Y0112226D02*
X0424266Y0112226D01*
X0424266Y0111175D02*
X0424266Y0113277D01*
X0423215Y0115472D02*
X0419012Y0115472D01*
X0417961Y0116523D01*
X0417961Y0118625D01*
X0419012Y0119676D01*
X0419012Y0121918D02*
X0417961Y0122969D01*
X0417961Y0125070D01*
X0419012Y0126121D01*
X0420062Y0126121D01*
X0421113Y0125070D01*
X0421113Y0124019D01*
X0421113Y0125070D02*
X0422164Y0126121D01*
X0423215Y0126121D01*
X0424266Y0125070D01*
X0424266Y0122969D01*
X0423215Y0121918D01*
X0423215Y0119676D02*
X0424266Y0118625D01*
X0424266Y0116523D01*
X0423215Y0115472D01*
D18*
X0324336Y0131616D02*
X0324336Y0136220D01*
X0322034Y0136220D01*
X0321267Y0135452D01*
X0321267Y0133918D01*
X0322034Y0133150D01*
X0324336Y0133150D01*
X0322801Y0133150D02*
X0321267Y0131616D01*
X0319732Y0132383D02*
X0318965Y0131616D01*
X0317430Y0131616D01*
X0316663Y0132383D01*
X0316663Y0133150D01*
X0317430Y0133918D01*
X0318965Y0133918D01*
X0319732Y0134685D01*
X0319732Y0135452D01*
X0318965Y0136220D01*
X0317430Y0136220D01*
X0316663Y0135452D01*
X0316663Y0134685D01*
X0317430Y0133918D01*
X0318965Y0133918D02*
X0319732Y0133150D01*
X0319732Y0132383D01*
X0293883Y0132851D02*
X0291581Y0132851D01*
X0290814Y0133618D01*
X0290814Y0135153D01*
X0291581Y0135920D01*
X0293883Y0135920D01*
X0293883Y0131317D01*
X0292348Y0132851D02*
X0290814Y0131317D01*
X0289279Y0132084D02*
X0288512Y0131317D01*
X0286977Y0131317D01*
X0286210Y0132084D01*
X0286210Y0135153D01*
X0286977Y0135920D01*
X0288512Y0135920D01*
X0289279Y0135153D01*
X0289279Y0134386D01*
X0288512Y0133618D01*
X0286210Y0133618D01*
X0374346Y0284982D02*
X0375880Y0284982D01*
X0376648Y0285749D01*
X0378182Y0284982D02*
X0381252Y0284982D01*
X0382786Y0284982D02*
X0384321Y0286517D01*
X0383554Y0286517D02*
X0385856Y0286517D01*
X0385856Y0284982D02*
X0385856Y0289586D01*
X0383554Y0289586D01*
X0382786Y0288818D01*
X0382786Y0287284D01*
X0383554Y0286517D01*
X0381252Y0288051D02*
X0379717Y0289586D01*
X0379717Y0284982D01*
X0376648Y0288818D02*
X0375880Y0289586D01*
X0374346Y0289586D01*
X0373578Y0288818D01*
X0373578Y0288051D01*
X0374346Y0287284D01*
X0373578Y0286517D01*
X0373578Y0285749D01*
X0374346Y0284982D01*
X0374346Y0287284D02*
X0375113Y0287284D01*
X0401614Y0303029D02*
X0401614Y0306098D01*
X0402381Y0306865D01*
X0403916Y0306865D01*
X0404683Y0306098D01*
X0404683Y0305331D01*
X0403916Y0304563D01*
X0401614Y0304563D01*
X0401614Y0303029D02*
X0402381Y0302261D01*
X0403916Y0302261D01*
X0404683Y0303029D01*
X0406218Y0302261D02*
X0409287Y0302261D01*
X0407752Y0302261D02*
X0407752Y0306865D01*
X0409287Y0305331D01*
X0410822Y0306098D02*
X0410822Y0304563D01*
X0411589Y0303796D01*
X0413891Y0303796D01*
X0413891Y0302261D02*
X0413891Y0306865D01*
X0411589Y0306865D01*
X0410822Y0306098D01*
X0412356Y0303796D02*
X0410822Y0302261D01*
X0469964Y0300181D02*
X0470732Y0300948D01*
X0472266Y0300948D01*
X0473033Y0300181D01*
X0469964Y0300181D02*
X0469964Y0299413D01*
X0473033Y0296344D01*
X0469964Y0296344D01*
X0474568Y0296344D02*
X0477637Y0296344D01*
X0476103Y0296344D02*
X0476103Y0300948D01*
X0477637Y0299413D01*
X0479172Y0298646D02*
X0479939Y0297879D01*
X0482241Y0297879D01*
X0480707Y0297879D02*
X0479172Y0296344D01*
X0479172Y0298646D02*
X0479172Y0300181D01*
X0479939Y0300948D01*
X0482241Y0300948D01*
X0482241Y0296344D01*
X0449749Y0351852D02*
X0449749Y0356456D01*
X0447447Y0356456D01*
X0446680Y0355689D01*
X0446680Y0354154D01*
X0447447Y0353387D01*
X0449749Y0353387D01*
X0448215Y0353387D02*
X0446680Y0351852D01*
X0445145Y0351852D02*
X0442076Y0351852D01*
X0443611Y0351852D02*
X0443611Y0356456D01*
X0445145Y0354921D01*
X0440541Y0354921D02*
X0440541Y0355689D01*
X0439774Y0356456D01*
X0438239Y0356456D01*
X0437472Y0355689D01*
X0437472Y0354921D01*
X0438239Y0354154D01*
X0439774Y0354154D01*
X0440541Y0354921D01*
X0439774Y0354154D02*
X0440541Y0353387D01*
X0440541Y0352619D01*
X0439774Y0351852D01*
X0438239Y0351852D01*
X0437472Y0352619D01*
X0437472Y0353387D01*
X0438239Y0354154D01*
X0189025Y0343087D02*
X0184421Y0343087D01*
X0184421Y0344621D02*
X0184421Y0341552D01*
X0184421Y0340017D02*
X0184421Y0336948D01*
X0184421Y0335413D02*
X0185955Y0333879D01*
X0185955Y0334646D02*
X0185955Y0332344D01*
X0184421Y0332344D02*
X0189025Y0332344D01*
X0189025Y0334646D01*
X0188257Y0335413D01*
X0186723Y0335413D01*
X0185955Y0334646D01*
X0187490Y0336948D02*
X0189025Y0338483D01*
X0184421Y0338483D01*
X0187490Y0341552D02*
X0189025Y0343087D01*
X0156600Y0343441D02*
X0155832Y0342674D01*
X0152763Y0342674D01*
X0155832Y0345743D01*
X0152763Y0345743D01*
X0151996Y0344976D01*
X0151996Y0343441D01*
X0152763Y0342674D01*
X0151996Y0341139D02*
X0151996Y0338070D01*
X0151996Y0336535D02*
X0153530Y0335001D01*
X0153530Y0335768D02*
X0153530Y0333466D01*
X0151996Y0333466D02*
X0156600Y0333466D01*
X0156600Y0335768D01*
X0155832Y0336535D01*
X0154298Y0336535D01*
X0153530Y0335768D01*
X0155065Y0338070D02*
X0156600Y0339605D01*
X0151996Y0339605D01*
X0156600Y0343441D02*
X0156600Y0344976D01*
X0155832Y0345743D01*
D19*
X0217668Y0317225D02*
X0217817Y0317462D01*
X0218015Y0317660D01*
X0218252Y0317809D01*
X0218517Y0317901D01*
X0218795Y0317932D01*
X0219073Y0317901D01*
X0219337Y0317809D01*
X0219574Y0317660D01*
X0219772Y0317462D01*
X0217817Y0317462D01*
X0217812Y0317453D02*
X0219777Y0317453D01*
X0219783Y0317445D02*
X0217807Y0317445D01*
X0217801Y0317436D02*
X0219788Y0317436D01*
X0219793Y0317428D02*
X0217796Y0317428D01*
X0217791Y0317419D02*
X0219799Y0317419D01*
X0219804Y0317411D02*
X0217785Y0317411D01*
X0217780Y0317402D02*
X0219809Y0317402D01*
X0219815Y0317394D02*
X0217775Y0317394D01*
X0217769Y0317385D02*
X0219820Y0317385D01*
X0219825Y0317377D02*
X0217764Y0317377D01*
X0217759Y0317368D02*
X0219831Y0317368D01*
X0219836Y0317360D02*
X0217753Y0317360D01*
X0217748Y0317351D02*
X0219841Y0317351D01*
X0219847Y0317343D02*
X0217743Y0317343D01*
X0217737Y0317334D02*
X0219852Y0317334D01*
X0219858Y0317326D02*
X0217732Y0317326D01*
X0217726Y0317317D02*
X0219863Y0317317D01*
X0219868Y0317309D02*
X0217721Y0317309D01*
X0217716Y0317300D02*
X0219874Y0317300D01*
X0219879Y0317292D02*
X0217710Y0317292D01*
X0217705Y0317283D02*
X0219884Y0317283D01*
X0219890Y0317275D02*
X0217700Y0317275D01*
X0217694Y0317266D02*
X0219895Y0317266D01*
X0219900Y0317258D02*
X0217689Y0317258D01*
X0217684Y0317249D02*
X0219906Y0317249D01*
X0219911Y0317241D02*
X0217678Y0317241D01*
X0217673Y0317232D02*
X0219916Y0317232D01*
X0219921Y0317225D02*
X0220013Y0316961D01*
X0220045Y0316682D01*
X0220013Y0316404D01*
X0219921Y0316140D01*
X0219772Y0315903D01*
X0219574Y0315705D01*
X0219337Y0315556D01*
X0219073Y0315464D01*
X0218795Y0315432D01*
X0218517Y0315464D01*
X0218252Y0315556D01*
X0218015Y0315705D01*
X0217817Y0315903D01*
X0217668Y0316140D01*
X0217576Y0316404D01*
X0217545Y0316682D01*
X0217576Y0316961D01*
X0217668Y0317225D01*
X0217668Y0317224D02*
X0219921Y0317224D01*
X0219921Y0317225D02*
X0219772Y0317462D01*
X0219763Y0317470D02*
X0217826Y0317470D01*
X0217834Y0317479D02*
X0219755Y0317479D01*
X0219746Y0317487D02*
X0217843Y0317487D01*
X0217852Y0317496D02*
X0219738Y0317496D01*
X0219729Y0317504D02*
X0217860Y0317504D01*
X0217869Y0317513D02*
X0219721Y0317513D01*
X0219712Y0317522D02*
X0217877Y0317522D01*
X0217886Y0317530D02*
X0219704Y0317530D01*
X0219695Y0317539D02*
X0217894Y0317539D01*
X0217903Y0317547D02*
X0219687Y0317547D01*
X0219678Y0317556D02*
X0217911Y0317556D01*
X0217920Y0317564D02*
X0219670Y0317564D01*
X0219661Y0317573D02*
X0217928Y0317573D01*
X0217937Y0317581D02*
X0219653Y0317581D01*
X0219644Y0317590D02*
X0217945Y0317590D01*
X0217954Y0317598D02*
X0219636Y0317598D01*
X0219627Y0317607D02*
X0217962Y0317607D01*
X0217971Y0317615D02*
X0219619Y0317615D01*
X0219610Y0317624D02*
X0217979Y0317624D01*
X0217988Y0317632D02*
X0219602Y0317632D01*
X0219593Y0317641D02*
X0217996Y0317641D01*
X0218005Y0317649D02*
X0219585Y0317649D01*
X0219576Y0317658D02*
X0218013Y0317658D01*
X0218026Y0317666D02*
X0219564Y0317666D01*
X0219550Y0317675D02*
X0218039Y0317675D01*
X0218053Y0317683D02*
X0219537Y0317683D01*
X0219523Y0317692D02*
X0218066Y0317692D01*
X0218080Y0317700D02*
X0219510Y0317700D01*
X0219496Y0317709D02*
X0218093Y0317709D01*
X0218107Y0317717D02*
X0219482Y0317717D01*
X0219469Y0317726D02*
X0218120Y0317726D01*
X0218134Y0317734D02*
X0219455Y0317734D01*
X0219442Y0317743D02*
X0218148Y0317743D01*
X0218161Y0317751D02*
X0219428Y0317751D01*
X0219415Y0317760D02*
X0218175Y0317760D01*
X0218188Y0317768D02*
X0219401Y0317768D01*
X0219388Y0317777D02*
X0218202Y0317777D01*
X0218215Y0317785D02*
X0219374Y0317785D01*
X0219360Y0317794D02*
X0218229Y0317794D01*
X0218242Y0317802D02*
X0219347Y0317802D01*
X0219330Y0317811D02*
X0218259Y0317811D01*
X0218283Y0317819D02*
X0219306Y0317819D01*
X0219282Y0317828D02*
X0218308Y0317828D01*
X0218332Y0317837D02*
X0219258Y0317837D01*
X0219233Y0317845D02*
X0218356Y0317845D01*
X0218380Y0317854D02*
X0219209Y0317854D01*
X0219185Y0317862D02*
X0218405Y0317862D01*
X0218429Y0317871D02*
X0219160Y0317871D01*
X0219136Y0317879D02*
X0218453Y0317879D01*
X0218478Y0317888D02*
X0219112Y0317888D01*
X0219087Y0317896D02*
X0218502Y0317896D01*
X0218547Y0317905D02*
X0219042Y0317905D01*
X0218966Y0317913D02*
X0218623Y0317913D01*
X0218699Y0317922D02*
X0218891Y0317922D01*
X0218815Y0317930D02*
X0218774Y0317930D01*
X0217665Y0317215D02*
X0219924Y0317215D01*
X0219927Y0317206D02*
X0217662Y0317206D01*
X0217659Y0317198D02*
X0219930Y0317198D01*
X0219933Y0317189D02*
X0217656Y0317189D01*
X0217653Y0317181D02*
X0219936Y0317181D01*
X0219939Y0317172D02*
X0217650Y0317172D01*
X0217647Y0317164D02*
X0219942Y0317164D01*
X0219945Y0317155D02*
X0217644Y0317155D01*
X0217641Y0317147D02*
X0219948Y0317147D01*
X0219951Y0317138D02*
X0217638Y0317138D01*
X0217635Y0317130D02*
X0219954Y0317130D01*
X0219957Y0317121D02*
X0217632Y0317121D01*
X0217629Y0317113D02*
X0219960Y0317113D01*
X0219963Y0317104D02*
X0217626Y0317104D01*
X0217623Y0317096D02*
X0219966Y0317096D01*
X0219969Y0317087D02*
X0217620Y0317087D01*
X0217617Y0317079D02*
X0219972Y0317079D01*
X0219975Y0317070D02*
X0217614Y0317070D01*
X0217611Y0317062D02*
X0219978Y0317062D01*
X0219981Y0317053D02*
X0217608Y0317053D01*
X0217605Y0317045D02*
X0219984Y0317045D01*
X0219987Y0317036D02*
X0217602Y0317036D01*
X0217599Y0317028D02*
X0219990Y0317028D01*
X0219993Y0317019D02*
X0217597Y0317019D01*
X0217594Y0317011D02*
X0219996Y0317011D01*
X0219999Y0317002D02*
X0217591Y0317002D01*
X0217588Y0316994D02*
X0220002Y0316994D01*
X0220005Y0316985D02*
X0217585Y0316985D01*
X0217582Y0316977D02*
X0220008Y0316977D01*
X0220011Y0316968D02*
X0217579Y0316968D01*
X0217576Y0316960D02*
X0220013Y0316960D01*
X0220014Y0316951D02*
X0217575Y0316951D01*
X0217574Y0316943D02*
X0220015Y0316943D01*
X0220016Y0316934D02*
X0217573Y0316934D01*
X0217572Y0316926D02*
X0220017Y0316926D01*
X0220018Y0316917D02*
X0217571Y0316917D01*
X0217570Y0316909D02*
X0220019Y0316909D01*
X0220020Y0316900D02*
X0217569Y0316900D01*
X0217568Y0316891D02*
X0220021Y0316891D01*
X0220022Y0316883D02*
X0217567Y0316883D01*
X0217566Y0316874D02*
X0220023Y0316874D01*
X0220024Y0316866D02*
X0217565Y0316866D01*
X0217564Y0316857D02*
X0220025Y0316857D01*
X0220026Y0316849D02*
X0217563Y0316849D01*
X0217562Y0316840D02*
X0220027Y0316840D01*
X0220028Y0316832D02*
X0217562Y0316832D01*
X0217561Y0316823D02*
X0220029Y0316823D01*
X0220030Y0316815D02*
X0217560Y0316815D01*
X0217559Y0316806D02*
X0220031Y0316806D01*
X0220032Y0316798D02*
X0217558Y0316798D01*
X0217557Y0316789D02*
X0220033Y0316789D01*
X0220034Y0316781D02*
X0217556Y0316781D01*
X0217555Y0316772D02*
X0220035Y0316772D01*
X0220036Y0316764D02*
X0217554Y0316764D01*
X0217553Y0316755D02*
X0220036Y0316755D01*
X0220037Y0316747D02*
X0217552Y0316747D01*
X0217551Y0316738D02*
X0220038Y0316738D01*
X0220039Y0316730D02*
X0217550Y0316730D01*
X0217549Y0316721D02*
X0220040Y0316721D01*
X0220041Y0316713D02*
X0217548Y0316713D01*
X0217547Y0316704D02*
X0220042Y0316704D01*
X0220043Y0316696D02*
X0217546Y0316696D01*
X0217545Y0316687D02*
X0220044Y0316687D01*
X0220044Y0316679D02*
X0217545Y0316679D01*
X0217546Y0316670D02*
X0220043Y0316670D01*
X0220042Y0316662D02*
X0217547Y0316662D01*
X0217548Y0316653D02*
X0220041Y0316653D01*
X0220040Y0316645D02*
X0217549Y0316645D01*
X0217550Y0316636D02*
X0220039Y0316636D01*
X0220039Y0316628D02*
X0217551Y0316628D01*
X0217552Y0316619D02*
X0220038Y0316619D01*
X0220037Y0316611D02*
X0217553Y0316611D01*
X0217554Y0316602D02*
X0220036Y0316602D01*
X0220035Y0316594D02*
X0217555Y0316594D01*
X0217556Y0316585D02*
X0220034Y0316585D01*
X0220033Y0316576D02*
X0217557Y0316576D01*
X0217558Y0316568D02*
X0220032Y0316568D01*
X0220031Y0316559D02*
X0217559Y0316559D01*
X0217560Y0316551D02*
X0220030Y0316551D01*
X0220029Y0316542D02*
X0217560Y0316542D01*
X0217561Y0316534D02*
X0220028Y0316534D01*
X0220027Y0316525D02*
X0217562Y0316525D01*
X0217563Y0316517D02*
X0220026Y0316517D01*
X0220025Y0316508D02*
X0217564Y0316508D01*
X0217565Y0316500D02*
X0220024Y0316500D01*
X0220023Y0316491D02*
X0217566Y0316491D01*
X0217567Y0316483D02*
X0220022Y0316483D01*
X0220021Y0316474D02*
X0217568Y0316474D01*
X0217569Y0316466D02*
X0220020Y0316466D01*
X0220019Y0316457D02*
X0217570Y0316457D01*
X0217571Y0316449D02*
X0220018Y0316449D01*
X0220017Y0316440D02*
X0217572Y0316440D01*
X0217573Y0316432D02*
X0220016Y0316432D01*
X0220015Y0316423D02*
X0217574Y0316423D01*
X0217575Y0316415D02*
X0220015Y0316415D01*
X0220014Y0316406D02*
X0217576Y0316406D01*
X0217578Y0316398D02*
X0220011Y0316398D01*
X0220008Y0316389D02*
X0217581Y0316389D01*
X0217584Y0316381D02*
X0220005Y0316381D01*
X0220002Y0316372D02*
X0217587Y0316372D01*
X0217590Y0316364D02*
X0219999Y0316364D01*
X0219996Y0316355D02*
X0217593Y0316355D01*
X0217596Y0316347D02*
X0219993Y0316347D01*
X0219990Y0316338D02*
X0217599Y0316338D01*
X0217602Y0316330D02*
X0219987Y0316330D01*
X0219984Y0316321D02*
X0217605Y0316321D01*
X0217608Y0316313D02*
X0219981Y0316313D01*
X0219978Y0316304D02*
X0217611Y0316304D01*
X0217614Y0316296D02*
X0219975Y0316296D01*
X0219972Y0316287D02*
X0217617Y0316287D01*
X0217620Y0316278D02*
X0219969Y0316278D01*
X0219966Y0316270D02*
X0217623Y0316270D01*
X0217626Y0316261D02*
X0219963Y0316261D01*
X0219960Y0316253D02*
X0217629Y0316253D01*
X0217632Y0316244D02*
X0219957Y0316244D01*
X0219954Y0316236D02*
X0217635Y0316236D01*
X0217638Y0316227D02*
X0219951Y0316227D01*
X0219948Y0316219D02*
X0217641Y0316219D01*
X0217644Y0316210D02*
X0219945Y0316210D01*
X0219943Y0316202D02*
X0217647Y0316202D01*
X0217650Y0316193D02*
X0219940Y0316193D01*
X0219937Y0316185D02*
X0217653Y0316185D01*
X0217656Y0316176D02*
X0219934Y0316176D01*
X0219931Y0316168D02*
X0217659Y0316168D01*
X0217662Y0316159D02*
X0219928Y0316159D01*
X0219925Y0316151D02*
X0217665Y0316151D01*
X0217668Y0316142D02*
X0219922Y0316142D01*
X0219917Y0316134D02*
X0217672Y0316134D01*
X0217678Y0316125D02*
X0219912Y0316125D01*
X0219906Y0316117D02*
X0217683Y0316117D01*
X0217689Y0316108D02*
X0219901Y0316108D01*
X0219895Y0316100D02*
X0217694Y0316100D01*
X0217699Y0316091D02*
X0219890Y0316091D01*
X0219885Y0316083D02*
X0217705Y0316083D01*
X0217710Y0316074D02*
X0219879Y0316074D01*
X0219874Y0316066D02*
X0217715Y0316066D01*
X0217721Y0316057D02*
X0219869Y0316057D01*
X0219863Y0316049D02*
X0217726Y0316049D01*
X0217731Y0316040D02*
X0219858Y0316040D01*
X0219853Y0316032D02*
X0217737Y0316032D01*
X0217742Y0316023D02*
X0219847Y0316023D01*
X0219842Y0316015D02*
X0217747Y0316015D01*
X0217753Y0316006D02*
X0219837Y0316006D01*
X0219831Y0315998D02*
X0217758Y0315998D01*
X0217763Y0315989D02*
X0219826Y0315989D01*
X0219821Y0315981D02*
X0217769Y0315981D01*
X0217774Y0315972D02*
X0219815Y0315972D01*
X0219810Y0315963D02*
X0217779Y0315963D01*
X0217785Y0315955D02*
X0219805Y0315955D01*
X0219799Y0315946D02*
X0217790Y0315946D01*
X0217796Y0315938D02*
X0219794Y0315938D01*
X0219789Y0315929D02*
X0217801Y0315929D01*
X0217806Y0315921D02*
X0219783Y0315921D01*
X0219778Y0315912D02*
X0217812Y0315912D01*
X0217817Y0315904D02*
X0219772Y0315904D01*
X0219764Y0315895D02*
X0217825Y0315895D01*
X0217834Y0315887D02*
X0219756Y0315887D01*
X0219747Y0315878D02*
X0217842Y0315878D01*
X0217851Y0315870D02*
X0219739Y0315870D01*
X0219730Y0315861D02*
X0217859Y0315861D01*
X0217868Y0315853D02*
X0219722Y0315853D01*
X0219713Y0315844D02*
X0217876Y0315844D01*
X0217885Y0315836D02*
X0219705Y0315836D01*
X0219696Y0315827D02*
X0217893Y0315827D01*
X0217902Y0315819D02*
X0219688Y0315819D01*
X0219679Y0315810D02*
X0217910Y0315810D01*
X0217919Y0315802D02*
X0219671Y0315802D01*
X0219662Y0315793D02*
X0217927Y0315793D01*
X0217936Y0315785D02*
X0219654Y0315785D01*
X0219645Y0315776D02*
X0217944Y0315776D01*
X0217953Y0315768D02*
X0219637Y0315768D01*
X0219628Y0315759D02*
X0217961Y0315759D01*
X0217970Y0315751D02*
X0219620Y0315751D01*
X0219611Y0315742D02*
X0217978Y0315742D01*
X0217987Y0315734D02*
X0219602Y0315734D01*
X0219594Y0315725D02*
X0217995Y0315725D01*
X0218004Y0315717D02*
X0219585Y0315717D01*
X0219577Y0315708D02*
X0218012Y0315708D01*
X0218024Y0315700D02*
X0219565Y0315700D01*
X0219552Y0315691D02*
X0218038Y0315691D01*
X0218051Y0315683D02*
X0219538Y0315683D01*
X0219524Y0315674D02*
X0218065Y0315674D01*
X0218078Y0315666D02*
X0219511Y0315666D01*
X0219497Y0315657D02*
X0218092Y0315657D01*
X0218106Y0315648D02*
X0219484Y0315648D01*
X0219470Y0315640D02*
X0218119Y0315640D01*
X0218133Y0315631D02*
X0219457Y0315631D01*
X0219443Y0315623D02*
X0218146Y0315623D01*
X0218160Y0315614D02*
X0219430Y0315614D01*
X0219416Y0315606D02*
X0218173Y0315606D01*
X0218187Y0315597D02*
X0219402Y0315597D01*
X0219389Y0315589D02*
X0218200Y0315589D01*
X0218214Y0315580D02*
X0219375Y0315580D01*
X0219362Y0315572D02*
X0218228Y0315572D01*
X0218241Y0315563D02*
X0219348Y0315563D01*
X0219333Y0315555D02*
X0218256Y0315555D01*
X0218281Y0315546D02*
X0219309Y0315546D01*
X0219284Y0315538D02*
X0218305Y0315538D01*
X0218329Y0315529D02*
X0219260Y0315529D01*
X0219236Y0315521D02*
X0218354Y0315521D01*
X0218378Y0315512D02*
X0219211Y0315512D01*
X0219187Y0315504D02*
X0218402Y0315504D01*
X0218427Y0315495D02*
X0219163Y0315495D01*
X0219138Y0315487D02*
X0218451Y0315487D01*
X0218475Y0315478D02*
X0219114Y0315478D01*
X0219090Y0315470D02*
X0218500Y0315470D01*
X0218540Y0315461D02*
X0219049Y0315461D01*
X0218974Y0315453D02*
X0218616Y0315453D01*
X0218691Y0315444D02*
X0218898Y0315444D01*
X0218823Y0315436D02*
X0218767Y0315436D01*
M02*
