G75*
%MOIN*%
%OFA0B0*%
%FSLAX25Y25*%
%IPPOS*%
%LPD*%
%AMOC8*
5,1,8,0,0,1.08239X$1,22.5*
%
%ADD10C,0.07400*%
%ADD11R,0.02000X0.04700*%
%ADD12R,0.05524X0.03162*%
%ADD13R,0.07099X0.08674*%
%ADD14R,0.08674X0.07099*%
%ADD15R,0.04343X0.03950*%
%ADD16R,0.07887X0.07099*%
%ADD17R,0.07099X0.07887*%
%ADD18C,0.07400*%
%ADD19C,0.13800*%
%ADD20C,0.06800*%
%ADD21OC8,0.07800*%
%ADD22OC8,0.06400*%
%ADD23OC8,0.08400*%
%ADD24C,0.06400*%
%ADD25C,0.03187*%
%ADD26C,0.03778*%
D10*
X0096587Y0194272D03*
X0106587Y0194272D03*
X0106587Y0204272D03*
X0096587Y0204272D03*
X0096587Y0214272D03*
X0106587Y0214272D03*
X0106587Y0224272D03*
X0096587Y0224272D03*
X0096587Y0234272D03*
X0106587Y0234272D03*
X0106587Y0244272D03*
X0096587Y0244272D03*
X0096587Y0254272D03*
X0106587Y0254272D03*
X0106587Y0264272D03*
X0096587Y0264272D03*
X0096587Y0274272D03*
X0106587Y0274272D03*
X0106587Y0284272D03*
X0096587Y0284272D03*
X0096587Y0294272D03*
X0106587Y0294272D03*
X0106587Y0304272D03*
X0096587Y0304272D03*
X0096587Y0314272D03*
X0106587Y0314272D03*
X0106587Y0324272D03*
X0096587Y0324272D03*
X0096587Y0334272D03*
X0106587Y0334272D03*
X0106587Y0344272D03*
X0096587Y0344272D03*
X0146587Y0344272D03*
X0156587Y0344272D03*
X0166587Y0344272D03*
X0176587Y0344272D03*
X0186587Y0344272D03*
X0196587Y0344272D03*
X0206587Y0344272D03*
X0216587Y0344272D03*
X0226587Y0344272D03*
X0236587Y0344272D03*
X0246587Y0344272D03*
X0256587Y0344272D03*
X0266587Y0344272D03*
X0276587Y0344272D03*
X0286587Y0344272D03*
X0296587Y0344272D03*
X0306587Y0344272D03*
X0316587Y0344272D03*
X0326587Y0344272D03*
X0336587Y0344272D03*
X0346587Y0344272D03*
X0356587Y0344272D03*
X0366587Y0344272D03*
X0376587Y0344272D03*
X0386587Y0344272D03*
X0396587Y0344272D03*
X0406587Y0344272D03*
X0416587Y0344272D03*
X0426587Y0344272D03*
X0436587Y0344272D03*
X0446587Y0344272D03*
X0456587Y0344272D03*
X0466587Y0344272D03*
X0476587Y0344272D03*
X0486587Y0344272D03*
X0496587Y0344272D03*
X0506587Y0344272D03*
X0516587Y0344272D03*
X0526587Y0344272D03*
X0526587Y0354272D03*
X0516587Y0354272D03*
X0506587Y0354272D03*
X0496587Y0354272D03*
X0486587Y0354272D03*
X0476587Y0354272D03*
X0466587Y0354272D03*
X0456587Y0354272D03*
X0446587Y0354272D03*
X0436587Y0354272D03*
X0426587Y0354272D03*
X0416587Y0354272D03*
X0406587Y0354272D03*
X0396587Y0354272D03*
X0386587Y0354272D03*
X0376587Y0354272D03*
X0366587Y0354272D03*
X0356587Y0354272D03*
X0346587Y0354272D03*
X0336587Y0354272D03*
X0326587Y0354272D03*
X0316587Y0354272D03*
X0306587Y0354272D03*
X0296587Y0354272D03*
X0286587Y0354272D03*
X0276587Y0354272D03*
X0266587Y0354272D03*
X0256587Y0354272D03*
X0246587Y0354272D03*
X0236587Y0354272D03*
X0226587Y0354272D03*
X0216587Y0354272D03*
X0206587Y0354272D03*
X0196587Y0354272D03*
X0186587Y0354272D03*
X0176587Y0354272D03*
X0166587Y0354272D03*
X0156587Y0354272D03*
X0146587Y0354272D03*
X0546587Y0344272D03*
X0556587Y0344272D03*
X0556587Y0334272D03*
X0546587Y0334272D03*
X0546587Y0324272D03*
X0556587Y0324272D03*
X0556587Y0314272D03*
X0546587Y0314272D03*
X0546587Y0304272D03*
X0556587Y0304272D03*
X0556587Y0294272D03*
X0546587Y0294272D03*
X0546587Y0284272D03*
X0556587Y0284272D03*
X0556587Y0274272D03*
X0546587Y0274272D03*
X0546587Y0264272D03*
X0556587Y0264272D03*
X0556587Y0254272D03*
X0546587Y0254272D03*
X0546587Y0244272D03*
X0556587Y0244272D03*
X0556587Y0234272D03*
X0546587Y0234272D03*
X0546587Y0224272D03*
X0556587Y0224272D03*
X0556587Y0214272D03*
X0546587Y0214272D03*
X0546587Y0204272D03*
X0556587Y0204272D03*
X0556587Y0194272D03*
X0546587Y0194272D03*
X0546587Y0184272D03*
X0556587Y0184272D03*
X0556587Y0174272D03*
X0546587Y0174272D03*
D11*
X0150283Y0286020D03*
X0147724Y0286020D03*
X0145165Y0286020D03*
X0142606Y0286020D03*
X0140047Y0286020D03*
X0137488Y0286020D03*
X0134929Y0286020D03*
X0132370Y0286020D03*
X0132370Y0308995D03*
X0134929Y0308995D03*
X0137488Y0308995D03*
X0140047Y0308995D03*
X0142606Y0308995D03*
X0145165Y0308995D03*
X0147724Y0308995D03*
X0150283Y0308995D03*
D12*
X0487134Y0256272D03*
X0487134Y0251272D03*
X0487134Y0246272D03*
X0487134Y0241272D03*
X0487134Y0236272D03*
X0487134Y0231272D03*
X0487134Y0226272D03*
X0509181Y0226272D03*
X0509181Y0231272D03*
X0509181Y0236272D03*
X0509181Y0241272D03*
X0509181Y0246272D03*
X0509181Y0251272D03*
X0509181Y0256272D03*
X0511988Y0159831D03*
X0511988Y0154831D03*
X0511988Y0149831D03*
X0511988Y0144831D03*
X0489941Y0144831D03*
X0489941Y0149831D03*
X0489941Y0154831D03*
X0489941Y0159831D03*
D13*
X0495130Y0186866D03*
X0484106Y0186866D03*
X0507406Y0187681D03*
X0518429Y0187681D03*
X0518209Y0209614D03*
X0507185Y0209614D03*
X0494689Y0210016D03*
X0483665Y0210016D03*
X0471142Y0253165D03*
X0460118Y0253165D03*
X0468697Y0276748D03*
X0479720Y0276748D03*
X0479201Y0298567D03*
X0468177Y0298567D03*
X0304480Y0218252D03*
X0293457Y0218252D03*
X0293252Y0197295D03*
X0304276Y0197295D03*
X0305201Y0175331D03*
X0294177Y0175331D03*
X0185059Y0274437D03*
X0174035Y0274437D03*
X0191020Y0296508D03*
X0202043Y0296508D03*
X0202598Y0319583D03*
X0191575Y0319583D03*
D14*
X0171000Y0314535D03*
X0171000Y0325559D03*
X0463480Y0231339D03*
X0463480Y0220315D03*
D15*
X0528791Y0279386D03*
X0537059Y0283126D03*
X0528791Y0286866D03*
X0528429Y0294386D03*
X0536697Y0298126D03*
X0528429Y0301866D03*
D16*
X0511370Y0304181D03*
X0511370Y0293157D03*
X0511472Y0284476D03*
X0511472Y0273453D03*
D17*
X0521969Y0266661D03*
X0532992Y0266661D03*
X0533252Y0314386D03*
X0522228Y0314386D03*
D18*
X0152572Y0154953D02*
X0152572Y0148353D01*
X0142572Y0148353D02*
X0142572Y0154953D01*
X0132572Y0154953D02*
X0132572Y0148353D01*
D19*
X0142572Y0092653D03*
D20*
X0149247Y0198270D03*
X0159247Y0198270D03*
X0169247Y0198270D03*
X0169235Y0208853D03*
X0159235Y0208853D03*
X0149235Y0208853D03*
X0149275Y0219498D03*
X0159275Y0219498D03*
X0169275Y0219498D03*
D21*
X0229740Y0158441D03*
X0229740Y0148441D03*
X0229740Y0138441D03*
X0229740Y0128441D03*
X0229740Y0118441D03*
X0229740Y0108441D03*
X0229740Y0098441D03*
X0229740Y0088441D03*
X0462024Y0088441D03*
X0462024Y0098441D03*
X0462024Y0108441D03*
X0462024Y0118441D03*
X0462024Y0128441D03*
X0462024Y0138441D03*
X0462024Y0148441D03*
X0462024Y0158441D03*
D22*
X0178158Y0155959D03*
X0178158Y0165959D03*
X0148140Y0165409D03*
X0138140Y0165409D03*
D23*
X0197456Y0126583D03*
X0208035Y0126602D03*
D24*
X0120315Y0155157D03*
X0120315Y0165000D03*
X0120315Y0174843D03*
X0096693Y0174843D03*
X0096693Y0165000D03*
X0096693Y0155157D03*
D25*
X0143126Y0180921D03*
X0115567Y0208480D03*
X0124622Y0225803D03*
X0120291Y0249819D03*
X0149425Y0266748D03*
X0155724Y0276197D03*
X0168717Y0277378D03*
X0193126Y0282496D03*
X0198244Y0276591D03*
X0206906Y0272260D03*
X0205724Y0262024D03*
X0201394Y0257693D03*
X0215567Y0265173D03*
X0222260Y0265173D03*
X0229346Y0272260D03*
X0232496Y0282496D03*
X0240764Y0277378D03*
X0239583Y0257693D03*
X0230528Y0254543D03*
X0234858Y0245488D03*
X0252181Y0221866D03*
X0271866Y0221866D03*
X0276984Y0223441D03*
X0282102Y0223441D03*
X0286039Y0222654D03*
X0288008Y0217535D03*
X0290764Y0205331D03*
X0309268Y0202575D03*
X0326197Y0205331D03*
X0330134Y0195094D03*
X0319504Y0219898D03*
X0335646Y0236039D03*
X0344307Y0229346D03*
X0330134Y0247850D03*
X0299425Y0273835D03*
X0315961Y0283283D03*
X0309268Y0289583D03*
X0288795Y0304937D03*
X0262024Y0334071D03*
X0238008Y0338795D03*
X0265567Y0359661D03*
X0206512Y0313598D03*
X0218323Y0294307D03*
X0146276Y0296756D03*
X0137523Y0299393D03*
X0137614Y0291157D03*
X0125043Y0296512D03*
X0117535Y0279346D03*
X0089189Y0286827D03*
X0230528Y0214386D03*
X0234858Y0201787D03*
X0241551Y0197457D03*
X0254543Y0189583D03*
X0259268Y0202969D03*
X0278559Y0185252D03*
X0332890Y0144701D03*
X0340764Y0151394D03*
X0338008Y0158874D03*
X0347457Y0129346D03*
X0355331Y0127378D03*
X0355331Y0132496D03*
X0369504Y0190370D03*
X0382890Y0203756D03*
X0362811Y0205331D03*
X0372260Y0219898D03*
X0397063Y0225409D03*
X0417929Y0203362D03*
X0424228Y0211630D03*
X0438008Y0213598D03*
X0452969Y0208087D03*
X0471079Y0227772D03*
X0482102Y0216748D03*
X0484465Y0202575D03*
X0489976Y0187614D03*
X0505724Y0202575D03*
X0523047Y0217142D03*
X0510449Y0221866D03*
X0514386Y0241157D03*
X0502969Y0241945D03*
X0482102Y0239189D03*
X0480528Y0245882D03*
X0482496Y0256906D03*
X0471472Y0264386D03*
X0454937Y0249425D03*
X0451000Y0254150D03*
X0441157Y0273441D03*
X0436433Y0284071D03*
X0471472Y0283677D03*
X0473441Y0301000D03*
X0470685Y0305331D03*
X0511236Y0299031D03*
X0522260Y0308087D03*
X0510449Y0278953D03*
X0522260Y0273047D03*
X0496276Y0264780D03*
X0430134Y0227772D03*
X0410843Y0190370D03*
X0523047Y0180921D03*
X0367535Y0305331D03*
X0354937Y0302969D03*
X0349425Y0305724D03*
X0354937Y0296669D03*
X0349425Y0287220D03*
X0215961Y0159661D03*
X0208087Y0155331D03*
X0205331Y0141157D03*
D26*
X0197200Y0152555D03*
X0203517Y0172213D03*
X0188498Y0132897D03*
X0144113Y0174199D03*
X0133704Y0181452D03*
X0136374Y0207264D03*
X0128087Y0215579D03*
X0174470Y0283354D03*
X0141318Y0303973D03*
X0128346Y0308873D03*
X0157343Y0332099D03*
X0170893Y0331939D03*
M02*
