%
M48
M72
T01C0.00787
T02C0.01378
T03C0.03150
T04C0.03200
T05C0.03937
T06C0.04000
T07C0.04400
T08C0.13000
%
T01
X205331Y141157
X208087Y155331
X215961Y159661
X254543Y189583
X241551Y197457
X234858Y201787
X230528Y214386
X252181Y221866
X271866Y221866
X276984Y223441
X282102Y223441
X286039Y222654
X288008Y217535
X290764Y205331
X309268Y202575
X326197Y205331
X330134Y195094
X319504Y219898
X335646Y236039
X344307Y229346
X330134Y247850
X299425Y273835
X315961Y283283
X309268Y289583
X288795Y304937
X262024Y334071
X238008Y338795
X265567Y359661
X206512Y313598
X218323Y294307
X232496Y282496
X240764Y277378
X229346Y272260
X222260Y265173
X215567Y265173
X205724Y262024
X201394Y257693
X206906Y272260
X198244Y276591
X193126Y282496
X168717Y277378
X155724Y276197
X149425Y266748
X120291Y249819
X124622Y225803
X115567Y208480
X143126Y180921
X234858Y245488
X230528Y254543
X239583Y257693
X259268Y202969
X278559Y185252
X332890Y144701
X340764Y151394
X338008Y158874
X347457Y129346
X355331Y127378
X355331Y132496
X369504Y190370
X382890Y203756
X362811Y205331
X372260Y219898
X397063Y225409
X417929Y203362
X424228Y211630
X438008Y213598
X452969Y208087
X471079Y227772
X482102Y216748
X484465Y202575
X489976Y187614
X505724Y202575
X523047Y217142
X510449Y221866
X514386Y241157
X502969Y241945
X482102Y239189
X480528Y245882
X482496Y256906
X471472Y264386
X454937Y249425
X451000Y254150
X441157Y273441
X436433Y284071
X471472Y283677
X473441Y301000
X470685Y305331
X511236Y299031
X522260Y308087
X510449Y278953
X522260Y273047
X496276Y264780
X430134Y227772
X410843Y190370
X523047Y180921
X367535Y305331
X354937Y302969
X349425Y305724
X354937Y296669
X349425Y287220
X146276Y296756
X137523Y299393
X137614Y291157
X125043Y296512
X117535Y279346
X89189Y286827
T02
X128346Y308873
X141318Y303973
X174470Y283354
X170893Y331939
X157343Y332099
X128087Y215579
X136374Y207264
X133704Y181452
X144113Y174199
X197200Y152555
X203517Y172213
X188498Y132897
T03
X120315Y155157
X120315Y165000
X120315Y174843
X96693Y174843
X96693Y165000
X96693Y155157
T04
X138140Y165409
X148140Y165409
X178158Y165959
X178158Y155959
T05
X106587Y194272
X96587Y194272
X96587Y204272
X106587Y204272
X106587Y214272
X96587Y214272
X96587Y224272
X106587Y224272
X106587Y234272
X96587Y234272
X96587Y244272
X106587Y244272
X106587Y254272
X96587Y254272
X96587Y264272
X106587Y264272
X106587Y274272
X96587Y274272
X96587Y284272
X106587Y284272
X106587Y294272
X96587Y294272
X96587Y304272
X106587Y304272
X106587Y314272
X96587Y314272
X96587Y324272
X106587Y324272
X106587Y334272
X96587Y334272
X96587Y344272
X106587Y344272
X146587Y344272
X156587Y344272
X166587Y344272
X176587Y344272
X186587Y344272
X196587Y344272
X206587Y344272
X216587Y344272
X226587Y344272
X236587Y344272
X246587Y344272
X256587Y344272
X266587Y344272
X276587Y344272
X286587Y344272
X296587Y344272
X306587Y344272
X316587Y344272
X326587Y344272
X336587Y344272
X346587Y344272
X356587Y344272
X366587Y344272
X376587Y344272
X386587Y344272
X396587Y344272
X406587Y344272
X416587Y344272
X426587Y344272
X436587Y344272
X446587Y344272
X456587Y344272
X466587Y344272
X476587Y344272
X486587Y344272
X496587Y344272
X506587Y344272
X516587Y344272
X526587Y344272
X526587Y354272
X516587Y354272
X506587Y354272
X496587Y354272
X486587Y354272
X476587Y354272
X466587Y354272
X456587Y354272
X446587Y354272
X436587Y354272
X426587Y354272
X416587Y354272
X406587Y354272
X396587Y354272
X386587Y354272
X376587Y354272
X366587Y354272
X356587Y354272
X346587Y354272
X336587Y354272
X326587Y354272
X316587Y354272
X306587Y354272
X296587Y354272
X286587Y354272
X276587Y354272
X266587Y354272
X256587Y354272
X246587Y354272
X236587Y354272
X226587Y354272
X216587Y354272
X206587Y354272
X196587Y354272
X186587Y354272
X176587Y354272
X166587Y354272
X156587Y354272
X146587Y354272
X546587Y344272
X556587Y344272
X556587Y334272
X546587Y334272
X546587Y324272
X556587Y324272
X556587Y314272
X546587Y314272
X546587Y304272
X556587Y304272
X556587Y294272
X546587Y294272
X546587Y284272
X556587Y284272
X556587Y274272
X546587Y274272
X546587Y264272
X556587Y264272
X556587Y254272
X546587Y254272
X546587Y244272
X556587Y244272
X556587Y234272
X546587Y234272
X546587Y224272
X556587Y224272
X556587Y214272
X546587Y214272
X546587Y204272
X556587Y204272
X556587Y194272
X546587Y194272
X546587Y184272
X556587Y184272
X556587Y174272
X546587Y174272
T06
X462024Y158441
X462024Y148441
X462024Y138441
X462024Y128441
X462024Y118441
X462024Y108441
X462024Y98441
X462024Y88441
X229740Y88441
X229740Y98441
X229740Y108441
X229740Y118441
X229740Y128441
X229740Y138441
X229740Y148441
X229740Y158441
X208035Y126602
X197456Y126583
X169247Y198270
X159247Y198270
X149247Y198270
X149235Y208853
X159235Y208853
X169235Y208853
X169275Y219498
X159275Y219498
X149275Y219498
T07
X152572Y151653
X142572Y151653
X132572Y151653
T08
X142572Y92653
M30
