G75*
%MOIN*%
%OFA0B0*%
%FSLAX25Y25*%
%IPPOS*%
%LPD*%
%AMOC8*
5,1,8,0,0,1.08239X$1,22.5*
%
%ADD10C,0.01600*%
%ADD11C,0.00600*%
%ADD12C,0.00200*%
%ADD13C,0.00400*%
%ADD14C,0.00800*%
%ADD15C,0.00500*%
%ADD16C,0.00010*%
%ADD17C,0.00100*%
%ADD18C,0.00000*%
D10*
X0079687Y0158510D02*
X0080850Y0372732D01*
X0576913Y0372732D01*
X0575750Y0158510D01*
X0570409Y0152515D01*
X0564922Y0146651D01*
X0559294Y0140924D01*
X0553527Y0135335D01*
X0547626Y0129889D01*
X0541593Y0124589D01*
X0535433Y0119438D01*
X0529148Y0114439D01*
X0522744Y0109595D01*
X0516223Y0104909D01*
X0509589Y0100384D01*
X0502847Y0096022D01*
X0496000Y0091826D01*
X0489053Y0087799D01*
X0482009Y0083942D01*
X0474874Y0080259D01*
X0467650Y0076751D01*
X0460343Y0073421D01*
X0452957Y0070271D01*
X0445496Y0067301D01*
X0437964Y0064515D01*
X0430367Y0061914D01*
X0422708Y0059499D01*
X0414993Y0057272D01*
X0407226Y0055235D01*
X0399411Y0053387D01*
X0391554Y0051731D01*
X0383658Y0050268D01*
X0375729Y0048998D01*
X0367771Y0047922D01*
X0359789Y0047041D01*
X0351789Y0046355D01*
X0343773Y0045864D01*
X0335749Y0045570D01*
X0327719Y0045472D01*
X0319689Y0045570D01*
X0311665Y0045864D01*
X0303649Y0046355D01*
X0295649Y0047041D01*
X0287667Y0047922D01*
X0279709Y0048998D01*
X0271780Y0050268D01*
X0263884Y0051731D01*
X0256027Y0053387D01*
X0248212Y0055235D01*
X0240445Y0057272D01*
X0232730Y0059499D01*
X0225071Y0061914D01*
X0217474Y0064515D01*
X0209942Y0067301D01*
X0202481Y0070271D01*
X0195095Y0073421D01*
X0187788Y0076751D01*
X0180564Y0080259D01*
X0173429Y0083942D01*
X0166385Y0087799D01*
X0159438Y0091826D01*
X0152591Y0096022D01*
X0145849Y0100384D01*
X0139215Y0104909D01*
X0132694Y0109595D01*
X0126290Y0114439D01*
X0120005Y0119438D01*
X0113845Y0124589D01*
X0107812Y0129889D01*
X0101911Y0135335D01*
X0096144Y0140924D01*
X0090516Y0146651D01*
X0085029Y0152515D01*
X0079688Y0158510D01*
D11*
X0131427Y0288520D02*
X0131427Y0306495D01*
X0151227Y0306495D01*
X0151227Y0288520D01*
X0131427Y0288520D01*
X0133127Y0302308D02*
X0133129Y0302392D01*
X0133135Y0302477D01*
X0133145Y0302560D01*
X0133159Y0302644D01*
X0133176Y0302726D01*
X0133198Y0302808D01*
X0133223Y0302888D01*
X0133252Y0302967D01*
X0133285Y0303045D01*
X0133321Y0303121D01*
X0133361Y0303196D01*
X0133405Y0303268D01*
X0133451Y0303339D01*
X0133501Y0303407D01*
X0133554Y0303472D01*
X0133610Y0303535D01*
X0133669Y0303596D01*
X0133731Y0303653D01*
X0133795Y0303708D01*
X0133862Y0303759D01*
X0133931Y0303808D01*
X0134003Y0303853D01*
X0134076Y0303894D01*
X0134151Y0303932D01*
X0134228Y0303967D01*
X0134307Y0303998D01*
X0134387Y0304025D01*
X0134468Y0304048D01*
X0134550Y0304068D01*
X0134633Y0304084D01*
X0134716Y0304096D01*
X0134801Y0304104D01*
X0134885Y0304108D01*
X0134969Y0304108D01*
X0135053Y0304104D01*
X0135138Y0304096D01*
X0135221Y0304084D01*
X0135304Y0304068D01*
X0135386Y0304048D01*
X0135467Y0304025D01*
X0135547Y0303998D01*
X0135626Y0303967D01*
X0135703Y0303932D01*
X0135778Y0303894D01*
X0135851Y0303853D01*
X0135923Y0303808D01*
X0135992Y0303759D01*
X0136059Y0303708D01*
X0136123Y0303653D01*
X0136185Y0303596D01*
X0136244Y0303535D01*
X0136300Y0303472D01*
X0136353Y0303407D01*
X0136403Y0303339D01*
X0136449Y0303268D01*
X0136493Y0303196D01*
X0136533Y0303121D01*
X0136569Y0303045D01*
X0136602Y0302967D01*
X0136631Y0302888D01*
X0136656Y0302808D01*
X0136678Y0302726D01*
X0136695Y0302644D01*
X0136709Y0302560D01*
X0136719Y0302477D01*
X0136725Y0302392D01*
X0136727Y0302308D01*
X0136725Y0302224D01*
X0136719Y0302139D01*
X0136709Y0302056D01*
X0136695Y0301972D01*
X0136678Y0301890D01*
X0136656Y0301808D01*
X0136631Y0301728D01*
X0136602Y0301649D01*
X0136569Y0301571D01*
X0136533Y0301495D01*
X0136493Y0301420D01*
X0136449Y0301348D01*
X0136403Y0301277D01*
X0136353Y0301209D01*
X0136300Y0301144D01*
X0136244Y0301081D01*
X0136185Y0301020D01*
X0136123Y0300963D01*
X0136059Y0300908D01*
X0135992Y0300857D01*
X0135923Y0300808D01*
X0135851Y0300763D01*
X0135778Y0300722D01*
X0135703Y0300684D01*
X0135626Y0300649D01*
X0135547Y0300618D01*
X0135467Y0300591D01*
X0135386Y0300568D01*
X0135304Y0300548D01*
X0135221Y0300532D01*
X0135138Y0300520D01*
X0135053Y0300512D01*
X0134969Y0300508D01*
X0134885Y0300508D01*
X0134801Y0300512D01*
X0134716Y0300520D01*
X0134633Y0300532D01*
X0134550Y0300548D01*
X0134468Y0300568D01*
X0134387Y0300591D01*
X0134307Y0300618D01*
X0134228Y0300649D01*
X0134151Y0300684D01*
X0134076Y0300722D01*
X0134003Y0300763D01*
X0133931Y0300808D01*
X0133862Y0300857D01*
X0133795Y0300908D01*
X0133731Y0300963D01*
X0133669Y0301020D01*
X0133610Y0301081D01*
X0133554Y0301144D01*
X0133501Y0301209D01*
X0133451Y0301277D01*
X0133405Y0301348D01*
X0133361Y0301420D01*
X0133321Y0301495D01*
X0133285Y0301571D01*
X0133252Y0301649D01*
X0133223Y0301728D01*
X0133198Y0301808D01*
X0133176Y0301890D01*
X0133159Y0301972D01*
X0133145Y0302056D01*
X0133135Y0302139D01*
X0133129Y0302224D01*
X0133127Y0302308D01*
D12*
X0132327Y0305595D02*
X0132327Y0289420D01*
X0150327Y0289420D01*
X0150327Y0305595D01*
X0132327Y0305595D01*
D13*
X0129730Y0304026D02*
X0126127Y0304026D01*
X0127928Y0304627D02*
X0127928Y0302225D01*
X0129730Y0304026D01*
X0129129Y0300944D02*
X0129730Y0300343D01*
X0129730Y0299142D01*
X0129129Y0298542D01*
X0128529Y0298542D01*
X0127928Y0299142D01*
X0127928Y0300343D01*
X0127328Y0300944D01*
X0126727Y0300944D01*
X0126127Y0300343D01*
X0126127Y0299142D01*
X0126727Y0298542D01*
X0126727Y0297260D02*
X0129730Y0297260D01*
X0129730Y0294858D02*
X0126727Y0294858D01*
X0126127Y0295459D01*
X0126127Y0296660D01*
X0126727Y0297260D01*
X0125526Y0299743D02*
X0130330Y0299743D01*
X0161200Y0316039D02*
X0165804Y0316039D01*
X0165804Y0318341D01*
X0165037Y0319109D01*
X0163502Y0319109D01*
X0162735Y0318341D01*
X0162735Y0316039D01*
X0162735Y0317574D02*
X0161200Y0319109D01*
X0161967Y0320643D02*
X0161200Y0321411D01*
X0161200Y0322945D01*
X0161967Y0323713D01*
X0163502Y0323713D01*
X0164269Y0322945D01*
X0164269Y0322178D01*
X0163502Y0320643D01*
X0165804Y0320643D01*
X0165804Y0323713D01*
X0189609Y0325550D02*
X0190377Y0324783D01*
X0191911Y0324783D01*
X0192679Y0325550D01*
X0194213Y0324783D02*
X0197283Y0324783D01*
X0198817Y0324783D02*
X0200352Y0326317D01*
X0199585Y0326317D02*
X0201887Y0326317D01*
X0201887Y0324783D02*
X0201887Y0329387D01*
X0199585Y0329387D01*
X0198817Y0328619D01*
X0198817Y0327085D01*
X0199585Y0326317D01*
X0197283Y0327852D02*
X0195748Y0329387D01*
X0195748Y0324783D01*
X0192679Y0328619D02*
X0191911Y0329387D01*
X0190377Y0329387D01*
X0189609Y0328619D01*
X0189609Y0327852D01*
X0190377Y0327085D01*
X0189609Y0326317D01*
X0189609Y0325550D01*
X0190377Y0327085D02*
X0191144Y0327085D01*
X0191356Y0306312D02*
X0192124Y0305544D01*
X0191356Y0306312D02*
X0189822Y0306312D01*
X0189054Y0305544D01*
X0189054Y0304777D01*
X0192124Y0301708D01*
X0189054Y0301708D01*
X0193658Y0301708D02*
X0196728Y0301708D01*
X0198262Y0301708D02*
X0199797Y0303243D01*
X0199030Y0303243D02*
X0201331Y0303243D01*
X0201331Y0301708D02*
X0201331Y0306312D01*
X0199030Y0306312D01*
X0198262Y0305544D01*
X0198262Y0304010D01*
X0199030Y0303243D01*
X0196728Y0304777D02*
X0195193Y0306312D01*
X0195193Y0301708D01*
X0184347Y0284241D02*
X0182045Y0284241D01*
X0181278Y0283474D01*
X0181278Y0281939D01*
X0182045Y0281172D01*
X0184347Y0281172D01*
X0182813Y0281172D02*
X0181278Y0279637D01*
X0179743Y0279637D02*
X0176674Y0282706D01*
X0176674Y0283474D01*
X0177441Y0284241D01*
X0178976Y0284241D01*
X0179743Y0283474D01*
X0179743Y0279637D02*
X0176674Y0279637D01*
X0184347Y0279637D02*
X0184347Y0284241D01*
X0296095Y0227289D02*
X0296095Y0226521D01*
X0296863Y0225754D01*
X0296095Y0224987D01*
X0296095Y0224219D01*
X0296863Y0223452D01*
X0298397Y0223452D01*
X0299165Y0224219D01*
X0300699Y0223452D02*
X0302234Y0224987D01*
X0301467Y0224987D02*
X0303769Y0224987D01*
X0303769Y0223452D02*
X0303769Y0228056D01*
X0301467Y0228056D01*
X0300699Y0227289D01*
X0300699Y0225754D01*
X0301467Y0224987D01*
X0299165Y0227289D02*
X0298397Y0228056D01*
X0296863Y0228056D01*
X0296095Y0227289D01*
X0296863Y0225754D02*
X0297630Y0225754D01*
X0297425Y0207099D02*
X0297425Y0202495D01*
X0295891Y0202495D02*
X0298960Y0202495D01*
X0300495Y0202495D02*
X0302029Y0204030D01*
X0301262Y0204030D02*
X0303564Y0204030D01*
X0303564Y0202495D02*
X0303564Y0207099D01*
X0301262Y0207099D01*
X0300495Y0206332D01*
X0300495Y0204797D01*
X0301262Y0204030D01*
X0298960Y0205565D02*
X0297425Y0207099D01*
X0297583Y0185135D02*
X0299885Y0182833D01*
X0296816Y0182833D01*
X0297583Y0180531D02*
X0297583Y0185135D01*
X0301420Y0184367D02*
X0301420Y0182833D01*
X0302187Y0182065D01*
X0304489Y0182065D01*
X0304489Y0180531D02*
X0304489Y0185135D01*
X0302187Y0185135D01*
X0301420Y0184367D01*
X0302954Y0182065D02*
X0301420Y0180531D01*
X0453680Y0217215D02*
X0458284Y0217215D01*
X0458284Y0219517D01*
X0457517Y0220284D01*
X0455982Y0220284D01*
X0455215Y0219517D01*
X0455215Y0217215D01*
X0455215Y0218750D02*
X0453680Y0220284D01*
X0453680Y0221819D02*
X0453680Y0224888D01*
X0453680Y0223354D02*
X0458284Y0223354D01*
X0456750Y0221819D01*
X0455982Y0226423D02*
X0455982Y0229492D01*
X0453680Y0228725D02*
X0458284Y0228725D01*
X0455982Y0226423D01*
X0462732Y0243365D02*
X0464267Y0243365D01*
X0465034Y0244133D01*
X0465034Y0245667D02*
X0463499Y0246435D01*
X0462732Y0246435D01*
X0461965Y0245667D01*
X0461965Y0244133D01*
X0462732Y0243365D01*
X0465034Y0245667D02*
X0465034Y0247969D01*
X0461965Y0247969D01*
X0468103Y0247969D02*
X0468103Y0243365D01*
X0466569Y0243365D02*
X0469638Y0243365D01*
X0471172Y0243365D02*
X0472707Y0244900D01*
X0471940Y0244900D02*
X0474242Y0244900D01*
X0474242Y0243365D02*
X0474242Y0247969D01*
X0471940Y0247969D01*
X0471172Y0247202D01*
X0471172Y0245667D01*
X0471940Y0244900D01*
X0469638Y0246435D02*
X0468103Y0247969D01*
X0481700Y0219820D02*
X0481700Y0219052D01*
X0484769Y0215983D01*
X0484769Y0215216D01*
X0486304Y0215216D02*
X0489373Y0215216D01*
X0487839Y0215216D02*
X0487839Y0219820D01*
X0489373Y0218285D01*
X0490908Y0217518D02*
X0491675Y0216750D01*
X0493977Y0216750D01*
X0493977Y0215216D02*
X0493977Y0219820D01*
X0491675Y0219820D01*
X0490908Y0219052D01*
X0490908Y0217518D01*
X0492443Y0216750D02*
X0490908Y0215216D01*
X0484769Y0219820D02*
X0481700Y0219820D01*
X0505220Y0218651D02*
X0505220Y0215581D01*
X0505987Y0214814D01*
X0507522Y0214814D01*
X0508289Y0215581D01*
X0509824Y0214814D02*
X0512893Y0214814D01*
X0514428Y0214814D02*
X0515962Y0216349D01*
X0515195Y0216349D02*
X0517497Y0216349D01*
X0517497Y0214814D02*
X0517497Y0219418D01*
X0515195Y0219418D01*
X0514428Y0218651D01*
X0514428Y0217116D01*
X0515195Y0216349D01*
X0512893Y0217883D02*
X0511358Y0219418D01*
X0511358Y0214814D01*
X0508289Y0217883D02*
X0507522Y0217116D01*
X0505220Y0217116D01*
X0505220Y0218651D02*
X0505987Y0219418D01*
X0507522Y0219418D01*
X0508289Y0218651D01*
X0508289Y0217883D01*
X0507742Y0197485D02*
X0506208Y0197485D01*
X0505440Y0196718D01*
X0505440Y0195950D01*
X0506208Y0195183D01*
X0507742Y0195183D01*
X0508509Y0195950D01*
X0508509Y0196718D01*
X0507742Y0197485D01*
X0507742Y0195183D02*
X0508509Y0194416D01*
X0508509Y0193648D01*
X0507742Y0192881D01*
X0506208Y0192881D01*
X0505440Y0193648D01*
X0505440Y0194416D01*
X0506208Y0195183D01*
X0510044Y0192881D02*
X0513113Y0192881D01*
X0511579Y0192881D02*
X0511579Y0197485D01*
X0513113Y0195950D01*
X0514648Y0195183D02*
X0515415Y0194416D01*
X0517717Y0194416D01*
X0516183Y0194416D02*
X0514648Y0192881D01*
X0514648Y0195183D02*
X0514648Y0196718D01*
X0515415Y0197485D01*
X0517717Y0197485D01*
X0517717Y0192881D01*
X0494418Y0193601D02*
X0492116Y0193601D01*
X0491349Y0194368D01*
X0491349Y0195903D01*
X0492116Y0196670D01*
X0494418Y0196670D01*
X0494418Y0192066D01*
X0492883Y0193601D02*
X0491349Y0192066D01*
X0489814Y0192066D02*
X0486745Y0192066D01*
X0488280Y0192066D02*
X0488280Y0196670D01*
X0489814Y0195135D01*
X0485210Y0194368D02*
X0482908Y0194368D01*
X0482141Y0193601D01*
X0482141Y0192833D01*
X0482908Y0192066D01*
X0484443Y0192066D01*
X0485210Y0192833D01*
X0485210Y0194368D01*
X0483676Y0195903D01*
X0482141Y0196670D01*
X0479009Y0281948D02*
X0479009Y0286552D01*
X0476707Y0286552D01*
X0475939Y0285785D01*
X0475939Y0284250D01*
X0476707Y0283483D01*
X0479009Y0283483D01*
X0477474Y0283483D02*
X0475939Y0281948D01*
X0474405Y0281948D02*
X0471335Y0281948D01*
X0469801Y0281948D02*
X0466732Y0281948D01*
X0468266Y0281948D02*
X0468266Y0286552D01*
X0469801Y0285017D01*
X0472870Y0286552D02*
X0472870Y0281948D01*
X0474405Y0285017D02*
X0472870Y0286552D01*
X0472350Y0303767D02*
X0472350Y0308371D01*
X0473885Y0306836D01*
X0475420Y0306069D02*
X0476187Y0305302D01*
X0478489Y0305302D01*
X0476954Y0305302D02*
X0475420Y0303767D01*
X0473885Y0303767D02*
X0470816Y0303767D01*
X0469281Y0304534D02*
X0468514Y0303767D01*
X0466979Y0303767D01*
X0466212Y0304534D01*
X0466212Y0307604D01*
X0469281Y0304534D01*
X0469281Y0307604D01*
X0468514Y0308371D01*
X0466979Y0308371D01*
X0466212Y0307604D01*
X0475420Y0307604D02*
X0475420Y0306069D01*
X0475420Y0307604D02*
X0476187Y0308371D01*
X0478489Y0308371D01*
X0478489Y0303767D01*
D14*
X0491995Y0259472D02*
X0504320Y0259472D01*
X0504396Y0259470D01*
X0504471Y0259464D01*
X0504547Y0259455D01*
X0504622Y0259441D01*
X0504696Y0259424D01*
X0504769Y0259403D01*
X0504841Y0259379D01*
X0504911Y0259351D01*
X0504980Y0259319D01*
X0505048Y0259284D01*
X0505113Y0259245D01*
X0505177Y0259203D01*
X0505238Y0259158D01*
X0505297Y0259110D01*
X0505353Y0259059D01*
X0505407Y0259005D01*
X0505458Y0258949D01*
X0505506Y0258890D01*
X0505551Y0258829D01*
X0505593Y0258765D01*
X0505632Y0258700D01*
X0505667Y0258632D01*
X0505699Y0258563D01*
X0505727Y0258493D01*
X0505751Y0258421D01*
X0505772Y0258348D01*
X0505789Y0258274D01*
X0505803Y0258199D01*
X0505812Y0258123D01*
X0505818Y0258048D01*
X0505820Y0257972D01*
X0505820Y0224572D01*
X0505821Y0224572D02*
X0505809Y0224491D01*
X0505794Y0224411D01*
X0505775Y0224332D01*
X0505753Y0224254D01*
X0505726Y0224177D01*
X0505697Y0224101D01*
X0505663Y0224027D01*
X0505626Y0223955D01*
X0505586Y0223884D01*
X0505542Y0223816D01*
X0505495Y0223749D01*
X0505445Y0223685D01*
X0505392Y0223624D01*
X0505336Y0223565D01*
X0505277Y0223508D01*
X0505216Y0223455D01*
X0505152Y0223404D01*
X0505086Y0223357D01*
X0505018Y0223313D01*
X0504948Y0223272D01*
X0504876Y0223234D01*
X0504802Y0223200D01*
X0504726Y0223170D01*
X0504650Y0223143D01*
X0504572Y0223120D01*
X0504493Y0223100D01*
X0504413Y0223085D01*
X0504332Y0223073D01*
X0504252Y0223065D01*
X0504170Y0223061D01*
X0504089Y0223060D01*
X0504008Y0223064D01*
X0503927Y0223071D01*
X0503876Y0223072D02*
X0500557Y0223072D01*
X0500557Y0223272D02*
X0500555Y0223370D01*
X0500549Y0223468D01*
X0500540Y0223566D01*
X0500526Y0223663D01*
X0500509Y0223760D01*
X0500488Y0223856D01*
X0500463Y0223951D01*
X0500435Y0224045D01*
X0500402Y0224137D01*
X0500367Y0224229D01*
X0500327Y0224319D01*
X0500285Y0224407D01*
X0500238Y0224494D01*
X0500189Y0224578D01*
X0500136Y0224661D01*
X0500080Y0224741D01*
X0500020Y0224820D01*
X0499958Y0224896D01*
X0499893Y0224969D01*
X0499825Y0225040D01*
X0499754Y0225108D01*
X0499681Y0225173D01*
X0499605Y0225235D01*
X0499526Y0225295D01*
X0499446Y0225351D01*
X0499363Y0225404D01*
X0499279Y0225453D01*
X0499192Y0225500D01*
X0499104Y0225542D01*
X0499014Y0225582D01*
X0498922Y0225617D01*
X0498830Y0225650D01*
X0498736Y0225678D01*
X0498641Y0225703D01*
X0498545Y0225724D01*
X0498448Y0225741D01*
X0498351Y0225755D01*
X0498253Y0225764D01*
X0498155Y0225770D01*
X0498057Y0225772D01*
X0497959Y0225770D01*
X0497861Y0225764D01*
X0497763Y0225755D01*
X0497666Y0225741D01*
X0497569Y0225724D01*
X0497473Y0225703D01*
X0497378Y0225678D01*
X0497284Y0225650D01*
X0497192Y0225617D01*
X0497100Y0225582D01*
X0497010Y0225542D01*
X0496922Y0225500D01*
X0496835Y0225453D01*
X0496751Y0225404D01*
X0496668Y0225351D01*
X0496588Y0225295D01*
X0496509Y0225235D01*
X0496433Y0225173D01*
X0496360Y0225108D01*
X0496289Y0225040D01*
X0496221Y0224969D01*
X0496156Y0224896D01*
X0496094Y0224820D01*
X0496034Y0224741D01*
X0495978Y0224661D01*
X0495925Y0224578D01*
X0495876Y0224494D01*
X0495829Y0224407D01*
X0495787Y0224319D01*
X0495747Y0224229D01*
X0495712Y0224137D01*
X0495679Y0224045D01*
X0495651Y0223951D01*
X0495626Y0223856D01*
X0495605Y0223760D01*
X0495588Y0223663D01*
X0495574Y0223566D01*
X0495565Y0223468D01*
X0495559Y0223370D01*
X0495557Y0223272D01*
X0495557Y0223072D02*
X0491601Y0223072D01*
X0491531Y0223084D01*
X0491461Y0223101D01*
X0491393Y0223121D01*
X0491325Y0223144D01*
X0491259Y0223172D01*
X0491195Y0223203D01*
X0491133Y0223237D01*
X0491072Y0223275D01*
X0491013Y0223315D01*
X0490957Y0223359D01*
X0490904Y0223406D01*
X0490852Y0223456D01*
X0490804Y0223509D01*
X0490759Y0223564D01*
X0490716Y0223621D01*
X0490677Y0223681D01*
X0490641Y0223743D01*
X0490609Y0223806D01*
X0490580Y0223871D01*
X0490554Y0223938D01*
X0490532Y0224006D01*
X0490514Y0224075D01*
X0490500Y0224145D01*
X0490490Y0224216D01*
X0490483Y0224287D01*
X0490480Y0224358D01*
X0490481Y0224429D01*
X0490486Y0224501D01*
X0490495Y0224571D01*
X0490495Y0224572D02*
X0490495Y0258365D01*
X0490495Y0258366D02*
X0490507Y0258436D01*
X0490524Y0258506D01*
X0490544Y0258574D01*
X0490568Y0258641D01*
X0490595Y0258707D01*
X0490626Y0258772D01*
X0490660Y0258834D01*
X0490698Y0258895D01*
X0490739Y0258953D01*
X0490783Y0259010D01*
X0490830Y0259063D01*
X0490880Y0259114D01*
X0490932Y0259163D01*
X0490987Y0259208D01*
X0491045Y0259251D01*
X0491104Y0259290D01*
X0491166Y0259326D01*
X0491230Y0259358D01*
X0491295Y0259387D01*
X0491361Y0259413D01*
X0491429Y0259434D01*
X0491499Y0259453D01*
X0491568Y0259467D01*
X0491639Y0259477D01*
X0491710Y0259484D01*
X0491781Y0259487D01*
X0491853Y0259486D01*
X0491924Y0259481D01*
X0491995Y0259472D01*
X0532335Y0277614D02*
X0535484Y0277614D01*
X0535484Y0279976D01*
X0535484Y0286276D02*
X0535484Y0288638D01*
X0532335Y0288638D01*
X0531972Y0292614D02*
X0535122Y0292614D01*
X0535122Y0294976D01*
X0535122Y0301276D02*
X0535122Y0303638D01*
X0531972Y0303638D01*
X0507127Y0163031D02*
X0494802Y0163031D01*
X0494731Y0163040D01*
X0494660Y0163045D01*
X0494588Y0163046D01*
X0494517Y0163043D01*
X0494446Y0163036D01*
X0494375Y0163026D01*
X0494306Y0163012D01*
X0494236Y0162993D01*
X0494168Y0162972D01*
X0494102Y0162946D01*
X0494037Y0162917D01*
X0493973Y0162885D01*
X0493911Y0162849D01*
X0493852Y0162810D01*
X0493794Y0162767D01*
X0493739Y0162722D01*
X0493687Y0162673D01*
X0493637Y0162622D01*
X0493590Y0162569D01*
X0493546Y0162512D01*
X0493505Y0162454D01*
X0493467Y0162393D01*
X0493433Y0162331D01*
X0493402Y0162266D01*
X0493375Y0162200D01*
X0493351Y0162133D01*
X0493331Y0162065D01*
X0493314Y0161995D01*
X0493302Y0161925D01*
X0493302Y0161924D02*
X0493302Y0143131D01*
X0493302Y0143130D02*
X0493293Y0143060D01*
X0493288Y0142988D01*
X0493287Y0142917D01*
X0493290Y0142846D01*
X0493297Y0142775D01*
X0493307Y0142704D01*
X0493321Y0142634D01*
X0493339Y0142565D01*
X0493361Y0142497D01*
X0493387Y0142430D01*
X0493416Y0142365D01*
X0493448Y0142302D01*
X0493484Y0142240D01*
X0493523Y0142180D01*
X0493566Y0142123D01*
X0493611Y0142068D01*
X0493659Y0142015D01*
X0493711Y0141965D01*
X0493764Y0141918D01*
X0493820Y0141874D01*
X0493879Y0141834D01*
X0493940Y0141796D01*
X0494002Y0141762D01*
X0494066Y0141731D01*
X0494132Y0141703D01*
X0494200Y0141680D01*
X0494268Y0141660D01*
X0494338Y0141643D01*
X0494408Y0141631D01*
X0498365Y0141631D01*
X0498365Y0141831D02*
X0498367Y0141929D01*
X0498373Y0142027D01*
X0498382Y0142125D01*
X0498396Y0142222D01*
X0498413Y0142319D01*
X0498434Y0142415D01*
X0498459Y0142510D01*
X0498487Y0142604D01*
X0498520Y0142696D01*
X0498555Y0142788D01*
X0498595Y0142878D01*
X0498637Y0142966D01*
X0498684Y0143053D01*
X0498733Y0143137D01*
X0498786Y0143220D01*
X0498842Y0143300D01*
X0498902Y0143379D01*
X0498964Y0143455D01*
X0499029Y0143528D01*
X0499097Y0143599D01*
X0499168Y0143667D01*
X0499241Y0143732D01*
X0499317Y0143794D01*
X0499396Y0143854D01*
X0499476Y0143910D01*
X0499559Y0143963D01*
X0499643Y0144012D01*
X0499730Y0144059D01*
X0499818Y0144101D01*
X0499908Y0144141D01*
X0500000Y0144176D01*
X0500092Y0144209D01*
X0500186Y0144237D01*
X0500281Y0144262D01*
X0500377Y0144283D01*
X0500474Y0144300D01*
X0500571Y0144314D01*
X0500669Y0144323D01*
X0500767Y0144329D01*
X0500865Y0144331D01*
X0500963Y0144329D01*
X0501061Y0144323D01*
X0501159Y0144314D01*
X0501256Y0144300D01*
X0501353Y0144283D01*
X0501449Y0144262D01*
X0501544Y0144237D01*
X0501638Y0144209D01*
X0501730Y0144176D01*
X0501822Y0144141D01*
X0501912Y0144101D01*
X0502000Y0144059D01*
X0502087Y0144012D01*
X0502171Y0143963D01*
X0502254Y0143910D01*
X0502334Y0143854D01*
X0502413Y0143794D01*
X0502489Y0143732D01*
X0502562Y0143667D01*
X0502633Y0143599D01*
X0502701Y0143528D01*
X0502766Y0143455D01*
X0502828Y0143379D01*
X0502888Y0143300D01*
X0502944Y0143220D01*
X0502997Y0143137D01*
X0503046Y0143053D01*
X0503093Y0142966D01*
X0503135Y0142878D01*
X0503175Y0142788D01*
X0503210Y0142696D01*
X0503243Y0142604D01*
X0503271Y0142510D01*
X0503296Y0142415D01*
X0503317Y0142319D01*
X0503334Y0142222D01*
X0503348Y0142125D01*
X0503357Y0142027D01*
X0503363Y0141929D01*
X0503365Y0141831D01*
X0503365Y0141631D02*
X0506683Y0141631D01*
X0506734Y0141630D02*
X0506815Y0141623D01*
X0506896Y0141619D01*
X0506977Y0141620D01*
X0507059Y0141624D01*
X0507139Y0141632D01*
X0507220Y0141644D01*
X0507300Y0141659D01*
X0507379Y0141679D01*
X0507457Y0141702D01*
X0507533Y0141729D01*
X0507609Y0141759D01*
X0507683Y0141793D01*
X0507755Y0141831D01*
X0507825Y0141872D01*
X0507893Y0141916D01*
X0507959Y0141963D01*
X0508023Y0142014D01*
X0508084Y0142067D01*
X0508143Y0142124D01*
X0508199Y0142183D01*
X0508252Y0142244D01*
X0508302Y0142308D01*
X0508349Y0142375D01*
X0508393Y0142443D01*
X0508433Y0142514D01*
X0508470Y0142586D01*
X0508504Y0142660D01*
X0508533Y0142736D01*
X0508560Y0142813D01*
X0508582Y0142891D01*
X0508601Y0142970D01*
X0508616Y0143050D01*
X0508628Y0143131D01*
X0508627Y0143131D02*
X0508627Y0161531D01*
X0508628Y0161531D02*
X0508626Y0161607D01*
X0508620Y0161682D01*
X0508611Y0161758D01*
X0508597Y0161833D01*
X0508580Y0161907D01*
X0508559Y0161980D01*
X0508535Y0162052D01*
X0508507Y0162122D01*
X0508475Y0162191D01*
X0508440Y0162259D01*
X0508401Y0162324D01*
X0508359Y0162388D01*
X0508314Y0162449D01*
X0508266Y0162508D01*
X0508215Y0162564D01*
X0508161Y0162618D01*
X0508105Y0162669D01*
X0508046Y0162717D01*
X0507985Y0162762D01*
X0507921Y0162804D01*
X0507856Y0162843D01*
X0507788Y0162878D01*
X0507719Y0162910D01*
X0507649Y0162938D01*
X0507577Y0162962D01*
X0507504Y0162983D01*
X0507430Y0163000D01*
X0507355Y0163014D01*
X0507279Y0163023D01*
X0507204Y0163029D01*
X0507128Y0163031D01*
D15*
X0502924Y0139582D02*
X0502924Y0137998D01*
X0502608Y0137681D01*
X0501974Y0137681D01*
X0501657Y0137998D01*
X0501657Y0139582D01*
X0500715Y0139265D02*
X0500398Y0139582D01*
X0499764Y0139582D01*
X0499447Y0139265D01*
X0499447Y0138948D01*
X0500715Y0137681D01*
X0499447Y0137681D01*
X0499167Y0219122D02*
X0498850Y0219439D01*
X0498850Y0221023D01*
X0497907Y0220706D02*
X0497591Y0221023D01*
X0496957Y0221023D01*
X0496640Y0220706D01*
X0496640Y0220389D01*
X0496957Y0220072D01*
X0496640Y0219756D01*
X0496640Y0219439D01*
X0496957Y0219122D01*
X0497591Y0219122D01*
X0497907Y0219439D01*
X0497274Y0220072D02*
X0496957Y0220072D01*
X0499167Y0219122D02*
X0499800Y0219122D01*
X0500117Y0219439D01*
X0500117Y0221023D01*
D16*
X0490032Y0221897D02*
X0490001Y0221619D01*
X0489909Y0221354D01*
X0489760Y0221117D01*
X0489562Y0220919D01*
X0489325Y0220770D01*
X0489061Y0220678D01*
X0488782Y0220647D01*
X0488504Y0220678D01*
X0488240Y0220770D01*
X0488003Y0220919D01*
X0487805Y0221117D01*
X0487656Y0221354D01*
X0487564Y0221619D01*
X0487532Y0221897D01*
X0487564Y0222175D01*
X0487656Y0222439D01*
X0487805Y0222676D01*
X0488003Y0222874D01*
X0488240Y0223023D01*
X0488504Y0223115D01*
X0488782Y0223147D01*
X0489061Y0223115D01*
X0489325Y0223023D01*
X0489562Y0222874D01*
X0489760Y0222676D01*
X0489909Y0222439D01*
X0490001Y0222175D01*
X0490032Y0221897D01*
X0490032Y0221893D02*
X0487533Y0221893D01*
X0487533Y0221902D02*
X0490032Y0221902D01*
X0490031Y0221910D02*
X0487534Y0221910D01*
X0487535Y0221919D02*
X0490030Y0221919D01*
X0490029Y0221927D02*
X0487536Y0221927D01*
X0487537Y0221936D02*
X0490028Y0221936D01*
X0490027Y0221944D02*
X0487538Y0221944D01*
X0487539Y0221953D02*
X0490026Y0221953D01*
X0490025Y0221961D02*
X0487540Y0221961D01*
X0487541Y0221970D02*
X0490024Y0221970D01*
X0490023Y0221978D02*
X0487542Y0221978D01*
X0487543Y0221987D02*
X0490022Y0221987D01*
X0490021Y0221995D02*
X0487544Y0221995D01*
X0487545Y0222004D02*
X0490020Y0222004D01*
X0490019Y0222012D02*
X0487545Y0222012D01*
X0487546Y0222021D02*
X0490018Y0222021D01*
X0490018Y0222029D02*
X0487547Y0222029D01*
X0487548Y0222038D02*
X0490017Y0222038D01*
X0490016Y0222046D02*
X0487549Y0222046D01*
X0487550Y0222055D02*
X0490015Y0222055D01*
X0490014Y0222063D02*
X0487551Y0222063D01*
X0487552Y0222072D02*
X0490013Y0222072D01*
X0490012Y0222080D02*
X0487553Y0222080D01*
X0487554Y0222089D02*
X0490011Y0222089D01*
X0490010Y0222097D02*
X0487555Y0222097D01*
X0487556Y0222106D02*
X0490009Y0222106D01*
X0490008Y0222114D02*
X0487557Y0222114D01*
X0487558Y0222123D02*
X0490007Y0222123D01*
X0490006Y0222131D02*
X0487559Y0222131D01*
X0487560Y0222140D02*
X0490005Y0222140D01*
X0490004Y0222148D02*
X0487561Y0222148D01*
X0487562Y0222157D02*
X0490003Y0222157D01*
X0490002Y0222165D02*
X0487563Y0222165D01*
X0487564Y0222174D02*
X0490001Y0222174D01*
X0489998Y0222182D02*
X0487566Y0222182D01*
X0487569Y0222191D02*
X0489995Y0222191D01*
X0489992Y0222200D02*
X0487572Y0222200D01*
X0487575Y0222208D02*
X0489990Y0222208D01*
X0489987Y0222217D02*
X0487578Y0222217D01*
X0487581Y0222225D02*
X0489984Y0222225D01*
X0489981Y0222234D02*
X0487584Y0222234D01*
X0487587Y0222242D02*
X0489978Y0222242D01*
X0489975Y0222251D02*
X0487590Y0222251D01*
X0487593Y0222259D02*
X0489972Y0222259D01*
X0489969Y0222268D02*
X0487596Y0222268D01*
X0487599Y0222276D02*
X0489966Y0222276D01*
X0489963Y0222285D02*
X0487602Y0222285D01*
X0487605Y0222293D02*
X0489960Y0222293D01*
X0489957Y0222302D02*
X0487608Y0222302D01*
X0487611Y0222310D02*
X0489954Y0222310D01*
X0489951Y0222319D02*
X0487614Y0222319D01*
X0487617Y0222327D02*
X0489948Y0222327D01*
X0489945Y0222336D02*
X0487620Y0222336D01*
X0487623Y0222344D02*
X0489942Y0222344D01*
X0489939Y0222353D02*
X0487626Y0222353D01*
X0487629Y0222361D02*
X0489936Y0222361D01*
X0489933Y0222370D02*
X0487632Y0222370D01*
X0487635Y0222378D02*
X0489930Y0222378D01*
X0489927Y0222387D02*
X0487638Y0222387D01*
X0487641Y0222395D02*
X0489924Y0222395D01*
X0489921Y0222404D02*
X0487644Y0222404D01*
X0487647Y0222412D02*
X0489918Y0222412D01*
X0489915Y0222421D02*
X0487650Y0222421D01*
X0487653Y0222429D02*
X0489912Y0222429D01*
X0489909Y0222438D02*
X0487656Y0222438D01*
X0487661Y0222446D02*
X0489904Y0222446D01*
X0489899Y0222455D02*
X0487666Y0222455D01*
X0487672Y0222463D02*
X0489893Y0222463D01*
X0489888Y0222472D02*
X0487677Y0222472D01*
X0487682Y0222480D02*
X0489883Y0222480D01*
X0489877Y0222489D02*
X0487688Y0222489D01*
X0487693Y0222497D02*
X0489872Y0222497D01*
X0489867Y0222506D02*
X0487698Y0222506D01*
X0487704Y0222515D02*
X0489861Y0222515D01*
X0489856Y0222523D02*
X0487709Y0222523D01*
X0487714Y0222532D02*
X0489851Y0222532D01*
X0489845Y0222540D02*
X0487720Y0222540D01*
X0487725Y0222549D02*
X0489840Y0222549D01*
X0489834Y0222557D02*
X0487730Y0222557D01*
X0487736Y0222566D02*
X0489829Y0222566D01*
X0489824Y0222574D02*
X0487741Y0222574D01*
X0487747Y0222583D02*
X0489818Y0222583D01*
X0489813Y0222591D02*
X0487752Y0222591D01*
X0487757Y0222600D02*
X0489808Y0222600D01*
X0489802Y0222608D02*
X0487763Y0222608D01*
X0487768Y0222617D02*
X0489797Y0222617D01*
X0489792Y0222625D02*
X0487773Y0222625D01*
X0487779Y0222634D02*
X0489786Y0222634D01*
X0489781Y0222642D02*
X0487784Y0222642D01*
X0487789Y0222651D02*
X0489776Y0222651D01*
X0489770Y0222659D02*
X0487795Y0222659D01*
X0487800Y0222668D02*
X0489765Y0222668D01*
X0489760Y0222676D02*
X0487805Y0222676D01*
X0487814Y0222685D02*
X0489751Y0222685D01*
X0489742Y0222693D02*
X0487822Y0222693D01*
X0487831Y0222702D02*
X0489734Y0222702D01*
X0489725Y0222710D02*
X0487840Y0222710D01*
X0487848Y0222719D02*
X0489717Y0222719D01*
X0489708Y0222727D02*
X0487857Y0222727D01*
X0487865Y0222736D02*
X0489700Y0222736D01*
X0489691Y0222744D02*
X0487874Y0222744D01*
X0487882Y0222753D02*
X0489683Y0222753D01*
X0489674Y0222761D02*
X0487891Y0222761D01*
X0487899Y0222770D02*
X0489666Y0222770D01*
X0489657Y0222778D02*
X0487908Y0222778D01*
X0487916Y0222787D02*
X0489649Y0222787D01*
X0489640Y0222795D02*
X0487925Y0222795D01*
X0487933Y0222804D02*
X0489632Y0222804D01*
X0489623Y0222812D02*
X0487942Y0222812D01*
X0487950Y0222821D02*
X0489615Y0222821D01*
X0489606Y0222830D02*
X0487959Y0222830D01*
X0487967Y0222838D02*
X0489598Y0222838D01*
X0489589Y0222847D02*
X0487976Y0222847D01*
X0487984Y0222855D02*
X0489581Y0222855D01*
X0489572Y0222864D02*
X0487993Y0222864D01*
X0488001Y0222872D02*
X0489564Y0222872D01*
X0489551Y0222881D02*
X0488014Y0222881D01*
X0488027Y0222889D02*
X0489538Y0222889D01*
X0489524Y0222898D02*
X0488041Y0222898D01*
X0488054Y0222906D02*
X0489511Y0222906D01*
X0489497Y0222915D02*
X0488068Y0222915D01*
X0488081Y0222923D02*
X0489483Y0222923D01*
X0489470Y0222932D02*
X0488095Y0222932D01*
X0488109Y0222940D02*
X0489456Y0222940D01*
X0489443Y0222949D02*
X0488122Y0222949D01*
X0488136Y0222957D02*
X0489429Y0222957D01*
X0489416Y0222966D02*
X0488149Y0222966D01*
X0488163Y0222974D02*
X0489402Y0222974D01*
X0489389Y0222983D02*
X0488176Y0222983D01*
X0488190Y0222991D02*
X0489375Y0222991D01*
X0489362Y0223000D02*
X0488203Y0223000D01*
X0488217Y0223008D02*
X0489348Y0223008D01*
X0489334Y0223017D02*
X0488231Y0223017D01*
X0488247Y0223025D02*
X0489318Y0223025D01*
X0489293Y0223034D02*
X0488272Y0223034D01*
X0488296Y0223042D02*
X0489269Y0223042D01*
X0489245Y0223051D02*
X0488320Y0223051D01*
X0488345Y0223059D02*
X0489220Y0223059D01*
X0489196Y0223068D02*
X0488369Y0223068D01*
X0488393Y0223076D02*
X0489172Y0223076D01*
X0489147Y0223085D02*
X0488418Y0223085D01*
X0488442Y0223093D02*
X0489123Y0223093D01*
X0489099Y0223102D02*
X0488466Y0223102D01*
X0488491Y0223110D02*
X0489074Y0223110D01*
X0489028Y0223119D02*
X0488537Y0223119D01*
X0488613Y0223128D02*
X0488952Y0223128D01*
X0488877Y0223136D02*
X0488688Y0223136D01*
X0488764Y0223145D02*
X0488801Y0223145D01*
X0490031Y0221884D02*
X0487534Y0221884D01*
X0487535Y0221876D02*
X0490030Y0221876D01*
X0490029Y0221867D02*
X0487536Y0221867D01*
X0487537Y0221859D02*
X0490028Y0221859D01*
X0490027Y0221850D02*
X0487538Y0221850D01*
X0487539Y0221842D02*
X0490026Y0221842D01*
X0490025Y0221833D02*
X0487540Y0221833D01*
X0487541Y0221825D02*
X0490024Y0221825D01*
X0490023Y0221816D02*
X0487542Y0221816D01*
X0487542Y0221808D02*
X0490022Y0221808D01*
X0490022Y0221799D02*
X0487543Y0221799D01*
X0487544Y0221791D02*
X0490021Y0221791D01*
X0490020Y0221782D02*
X0487545Y0221782D01*
X0487546Y0221774D02*
X0490019Y0221774D01*
X0490018Y0221765D02*
X0487547Y0221765D01*
X0487548Y0221757D02*
X0490017Y0221757D01*
X0490016Y0221748D02*
X0487549Y0221748D01*
X0487550Y0221740D02*
X0490015Y0221740D01*
X0490014Y0221731D02*
X0487551Y0221731D01*
X0487552Y0221723D02*
X0490013Y0221723D01*
X0490012Y0221714D02*
X0487553Y0221714D01*
X0487554Y0221706D02*
X0490011Y0221706D01*
X0490010Y0221697D02*
X0487555Y0221697D01*
X0487556Y0221689D02*
X0490009Y0221689D01*
X0490008Y0221680D02*
X0487557Y0221680D01*
X0487558Y0221672D02*
X0490007Y0221672D01*
X0490006Y0221663D02*
X0487559Y0221663D01*
X0487560Y0221655D02*
X0490005Y0221655D01*
X0490004Y0221646D02*
X0487561Y0221646D01*
X0487562Y0221638D02*
X0490003Y0221638D01*
X0490002Y0221629D02*
X0487563Y0221629D01*
X0487564Y0221621D02*
X0490001Y0221621D01*
X0489999Y0221612D02*
X0487566Y0221612D01*
X0487569Y0221604D02*
X0489996Y0221604D01*
X0489993Y0221595D02*
X0487572Y0221595D01*
X0487575Y0221587D02*
X0489990Y0221587D01*
X0489987Y0221578D02*
X0487578Y0221578D01*
X0487581Y0221569D02*
X0489984Y0221569D01*
X0489981Y0221561D02*
X0487584Y0221561D01*
X0487587Y0221552D02*
X0489978Y0221552D01*
X0489975Y0221544D02*
X0487590Y0221544D01*
X0487593Y0221535D02*
X0489972Y0221535D01*
X0489969Y0221527D02*
X0487596Y0221527D01*
X0487599Y0221518D02*
X0489966Y0221518D01*
X0489963Y0221510D02*
X0487602Y0221510D01*
X0487605Y0221501D02*
X0489960Y0221501D01*
X0489957Y0221493D02*
X0487608Y0221493D01*
X0487611Y0221484D02*
X0489954Y0221484D01*
X0489951Y0221476D02*
X0487614Y0221476D01*
X0487617Y0221467D02*
X0489948Y0221467D01*
X0489945Y0221459D02*
X0487620Y0221459D01*
X0487623Y0221450D02*
X0489942Y0221450D01*
X0489939Y0221442D02*
X0487626Y0221442D01*
X0487629Y0221433D02*
X0489936Y0221433D01*
X0489933Y0221425D02*
X0487632Y0221425D01*
X0487635Y0221416D02*
X0489930Y0221416D01*
X0489927Y0221408D02*
X0487638Y0221408D01*
X0487641Y0221399D02*
X0489924Y0221399D01*
X0489921Y0221391D02*
X0487644Y0221391D01*
X0487647Y0221382D02*
X0489918Y0221382D01*
X0489915Y0221374D02*
X0487649Y0221374D01*
X0487652Y0221365D02*
X0489912Y0221365D01*
X0489910Y0221357D02*
X0487655Y0221357D01*
X0487660Y0221348D02*
X0489905Y0221348D01*
X0489899Y0221340D02*
X0487666Y0221340D01*
X0487671Y0221331D02*
X0489894Y0221331D01*
X0489889Y0221323D02*
X0487676Y0221323D01*
X0487682Y0221314D02*
X0489883Y0221314D01*
X0489878Y0221306D02*
X0487687Y0221306D01*
X0487692Y0221297D02*
X0489873Y0221297D01*
X0489867Y0221289D02*
X0487698Y0221289D01*
X0487703Y0221280D02*
X0489862Y0221280D01*
X0489857Y0221272D02*
X0487708Y0221272D01*
X0487714Y0221263D02*
X0489851Y0221263D01*
X0489846Y0221254D02*
X0487719Y0221254D01*
X0487724Y0221246D02*
X0489841Y0221246D01*
X0489835Y0221237D02*
X0487730Y0221237D01*
X0487735Y0221229D02*
X0489830Y0221229D01*
X0489825Y0221220D02*
X0487740Y0221220D01*
X0487746Y0221212D02*
X0489819Y0221212D01*
X0489814Y0221203D02*
X0487751Y0221203D01*
X0487756Y0221195D02*
X0489809Y0221195D01*
X0489803Y0221186D02*
X0487762Y0221186D01*
X0487767Y0221178D02*
X0489798Y0221178D01*
X0489792Y0221169D02*
X0487772Y0221169D01*
X0487778Y0221161D02*
X0489787Y0221161D01*
X0489782Y0221152D02*
X0487783Y0221152D01*
X0487789Y0221144D02*
X0489776Y0221144D01*
X0489771Y0221135D02*
X0487794Y0221135D01*
X0487799Y0221127D02*
X0489766Y0221127D01*
X0489760Y0221118D02*
X0487805Y0221118D01*
X0487813Y0221110D02*
X0489752Y0221110D01*
X0489744Y0221101D02*
X0487821Y0221101D01*
X0487830Y0221093D02*
X0489735Y0221093D01*
X0489727Y0221084D02*
X0487838Y0221084D01*
X0487847Y0221076D02*
X0489718Y0221076D01*
X0489710Y0221067D02*
X0487855Y0221067D01*
X0487864Y0221059D02*
X0489701Y0221059D01*
X0489693Y0221050D02*
X0487872Y0221050D01*
X0487881Y0221042D02*
X0489684Y0221042D01*
X0489676Y0221033D02*
X0487889Y0221033D01*
X0487898Y0221025D02*
X0489667Y0221025D01*
X0489659Y0221016D02*
X0487906Y0221016D01*
X0487915Y0221008D02*
X0489650Y0221008D01*
X0489642Y0220999D02*
X0487923Y0220999D01*
X0487932Y0220991D02*
X0489633Y0220991D01*
X0489625Y0220982D02*
X0487940Y0220982D01*
X0487949Y0220974D02*
X0489616Y0220974D01*
X0489607Y0220965D02*
X0487957Y0220965D01*
X0487966Y0220956D02*
X0489599Y0220956D01*
X0489590Y0220948D02*
X0487974Y0220948D01*
X0487983Y0220939D02*
X0489582Y0220939D01*
X0489573Y0220931D02*
X0487992Y0220931D01*
X0488000Y0220922D02*
X0489565Y0220922D01*
X0489553Y0220914D02*
X0488012Y0220914D01*
X0488025Y0220905D02*
X0489540Y0220905D01*
X0489526Y0220897D02*
X0488039Y0220897D01*
X0488052Y0220888D02*
X0489513Y0220888D01*
X0489499Y0220880D02*
X0488066Y0220880D01*
X0488080Y0220871D02*
X0489485Y0220871D01*
X0489472Y0220863D02*
X0488093Y0220863D01*
X0488107Y0220854D02*
X0489458Y0220854D01*
X0489445Y0220846D02*
X0488120Y0220846D01*
X0488134Y0220837D02*
X0489431Y0220837D01*
X0489418Y0220829D02*
X0488147Y0220829D01*
X0488161Y0220820D02*
X0489404Y0220820D01*
X0489391Y0220812D02*
X0488174Y0220812D01*
X0488188Y0220803D02*
X0489377Y0220803D01*
X0489363Y0220795D02*
X0488201Y0220795D01*
X0488215Y0220786D02*
X0489350Y0220786D01*
X0489336Y0220778D02*
X0488229Y0220778D01*
X0488244Y0220769D02*
X0489321Y0220769D01*
X0489297Y0220761D02*
X0488268Y0220761D01*
X0488292Y0220752D02*
X0489273Y0220752D01*
X0489248Y0220744D02*
X0488317Y0220744D01*
X0488341Y0220735D02*
X0489224Y0220735D01*
X0489200Y0220727D02*
X0488365Y0220727D01*
X0488390Y0220718D02*
X0489175Y0220718D01*
X0489151Y0220710D02*
X0488414Y0220710D01*
X0488438Y0220701D02*
X0489127Y0220701D01*
X0489102Y0220693D02*
X0488463Y0220693D01*
X0488487Y0220684D02*
X0489078Y0220684D01*
X0489039Y0220676D02*
X0488526Y0220676D01*
X0488602Y0220667D02*
X0488963Y0220667D01*
X0488888Y0220659D02*
X0488677Y0220659D01*
X0488753Y0220650D02*
X0488812Y0220650D01*
X0491590Y0141706D02*
X0491311Y0141674D01*
X0491047Y0141582D01*
X0490810Y0141433D01*
X0490612Y0141235D01*
X0490463Y0140998D01*
X0490371Y0140734D01*
X0490340Y0140456D01*
X0490371Y0140178D01*
X0492808Y0140178D01*
X0492716Y0139913D01*
X0492567Y0139676D01*
X0492369Y0139478D01*
X0492132Y0139330D01*
X0491868Y0139237D01*
X0491590Y0139206D01*
X0491311Y0139237D01*
X0491047Y0139330D01*
X0490810Y0139478D01*
X0490612Y0139676D01*
X0490463Y0139913D01*
X0490371Y0140178D01*
X0490370Y0140186D02*
X0492809Y0140186D01*
X0492808Y0140178D02*
X0492840Y0140456D01*
X0492808Y0140734D01*
X0492716Y0140998D01*
X0492567Y0141235D01*
X0492369Y0141433D01*
X0492132Y0141582D01*
X0491868Y0141674D01*
X0491590Y0141706D01*
X0491625Y0141702D02*
X0491554Y0141702D01*
X0491479Y0141693D02*
X0491701Y0141693D01*
X0491776Y0141685D02*
X0491403Y0141685D01*
X0491327Y0141676D02*
X0491852Y0141676D01*
X0491887Y0141668D02*
X0491292Y0141668D01*
X0491268Y0141659D02*
X0491911Y0141659D01*
X0491936Y0141651D02*
X0491244Y0141651D01*
X0491219Y0141642D02*
X0491960Y0141642D01*
X0491984Y0141634D02*
X0491195Y0141634D01*
X0491171Y0141625D02*
X0492009Y0141625D01*
X0492033Y0141617D02*
X0491146Y0141617D01*
X0491122Y0141608D02*
X0492057Y0141608D01*
X0492082Y0141600D02*
X0491098Y0141600D01*
X0491073Y0141591D02*
X0492106Y0141591D01*
X0492130Y0141583D02*
X0491049Y0141583D01*
X0491035Y0141574D02*
X0492144Y0141574D01*
X0492158Y0141566D02*
X0491021Y0141566D01*
X0491008Y0141557D02*
X0492172Y0141557D01*
X0492185Y0141548D02*
X0490994Y0141548D01*
X0490980Y0141540D02*
X0492199Y0141540D01*
X0492212Y0141531D02*
X0490967Y0141531D01*
X0490953Y0141523D02*
X0492226Y0141523D01*
X0492239Y0141514D02*
X0490940Y0141514D01*
X0490926Y0141506D02*
X0492253Y0141506D01*
X0492266Y0141497D02*
X0490913Y0141497D01*
X0490899Y0141489D02*
X0492280Y0141489D01*
X0492294Y0141480D02*
X0490886Y0141480D01*
X0490872Y0141472D02*
X0492307Y0141472D01*
X0492321Y0141463D02*
X0490858Y0141463D01*
X0490845Y0141455D02*
X0492334Y0141455D01*
X0492348Y0141446D02*
X0490831Y0141446D01*
X0490818Y0141438D02*
X0492361Y0141438D01*
X0492373Y0141429D02*
X0490806Y0141429D01*
X0490798Y0141421D02*
X0492381Y0141421D01*
X0492390Y0141412D02*
X0490789Y0141412D01*
X0490781Y0141404D02*
X0492398Y0141404D01*
X0492407Y0141395D02*
X0490772Y0141395D01*
X0490764Y0141387D02*
X0492415Y0141387D01*
X0492424Y0141378D02*
X0490755Y0141378D01*
X0490747Y0141370D02*
X0492432Y0141370D01*
X0492441Y0141361D02*
X0490738Y0141361D01*
X0490730Y0141353D02*
X0492449Y0141353D01*
X0492458Y0141344D02*
X0490721Y0141344D01*
X0490713Y0141336D02*
X0492466Y0141336D01*
X0492475Y0141327D02*
X0490704Y0141327D01*
X0490696Y0141319D02*
X0492483Y0141319D01*
X0492492Y0141310D02*
X0490687Y0141310D01*
X0490679Y0141302D02*
X0492500Y0141302D01*
X0492509Y0141293D02*
X0490670Y0141293D01*
X0490662Y0141285D02*
X0492517Y0141285D01*
X0492526Y0141276D02*
X0490653Y0141276D01*
X0490645Y0141268D02*
X0492534Y0141268D01*
X0492543Y0141259D02*
X0490636Y0141259D01*
X0490628Y0141250D02*
X0492551Y0141250D01*
X0492560Y0141242D02*
X0490619Y0141242D01*
X0490611Y0141233D02*
X0492568Y0141233D01*
X0492573Y0141225D02*
X0490606Y0141225D01*
X0490601Y0141216D02*
X0492579Y0141216D01*
X0492584Y0141208D02*
X0490595Y0141208D01*
X0490590Y0141199D02*
X0492589Y0141199D01*
X0492595Y0141191D02*
X0490585Y0141191D01*
X0490579Y0141182D02*
X0492600Y0141182D01*
X0492605Y0141174D02*
X0490574Y0141174D01*
X0490568Y0141165D02*
X0492611Y0141165D01*
X0492616Y0141157D02*
X0490563Y0141157D01*
X0490558Y0141148D02*
X0492621Y0141148D01*
X0492627Y0141140D02*
X0490552Y0141140D01*
X0490547Y0141131D02*
X0492632Y0141131D01*
X0492637Y0141123D02*
X0490542Y0141123D01*
X0490536Y0141114D02*
X0492643Y0141114D01*
X0492648Y0141106D02*
X0490531Y0141106D01*
X0490526Y0141097D02*
X0492653Y0141097D01*
X0492659Y0141089D02*
X0490520Y0141089D01*
X0490515Y0141080D02*
X0492664Y0141080D01*
X0492670Y0141072D02*
X0490510Y0141072D01*
X0490504Y0141063D02*
X0492675Y0141063D01*
X0492680Y0141055D02*
X0490499Y0141055D01*
X0490494Y0141046D02*
X0492686Y0141046D01*
X0492691Y0141038D02*
X0490488Y0141038D01*
X0490483Y0141029D02*
X0492696Y0141029D01*
X0492702Y0141021D02*
X0490478Y0141021D01*
X0490472Y0141012D02*
X0492707Y0141012D01*
X0492712Y0141004D02*
X0490467Y0141004D01*
X0490462Y0140995D02*
X0492717Y0140995D01*
X0492720Y0140987D02*
X0490459Y0140987D01*
X0490456Y0140978D02*
X0492723Y0140978D01*
X0492726Y0140970D02*
X0490453Y0140970D01*
X0490450Y0140961D02*
X0492729Y0140961D01*
X0492732Y0140953D02*
X0490447Y0140953D01*
X0490444Y0140944D02*
X0492735Y0140944D01*
X0492738Y0140935D02*
X0490441Y0140935D01*
X0490438Y0140927D02*
X0492741Y0140927D01*
X0492744Y0140918D02*
X0490435Y0140918D01*
X0490433Y0140910D02*
X0492747Y0140910D01*
X0492750Y0140901D02*
X0490430Y0140901D01*
X0490427Y0140893D02*
X0492753Y0140893D01*
X0492756Y0140884D02*
X0490424Y0140884D01*
X0490421Y0140876D02*
X0492759Y0140876D01*
X0492762Y0140867D02*
X0490418Y0140867D01*
X0490415Y0140859D02*
X0492764Y0140859D01*
X0492767Y0140850D02*
X0490412Y0140850D01*
X0490409Y0140842D02*
X0492770Y0140842D01*
X0492773Y0140833D02*
X0490406Y0140833D01*
X0490403Y0140825D02*
X0492776Y0140825D01*
X0492779Y0140816D02*
X0490400Y0140816D01*
X0490397Y0140808D02*
X0492782Y0140808D01*
X0492785Y0140799D02*
X0490394Y0140799D01*
X0490391Y0140791D02*
X0492788Y0140791D01*
X0492791Y0140782D02*
X0490388Y0140782D01*
X0490385Y0140774D02*
X0492794Y0140774D01*
X0492797Y0140765D02*
X0490382Y0140765D01*
X0490379Y0140757D02*
X0492800Y0140757D01*
X0492803Y0140748D02*
X0490376Y0140748D01*
X0490373Y0140740D02*
X0492806Y0140740D01*
X0492809Y0140731D02*
X0490371Y0140731D01*
X0490370Y0140723D02*
X0492809Y0140723D01*
X0492810Y0140714D02*
X0490369Y0140714D01*
X0490368Y0140706D02*
X0492811Y0140706D01*
X0492812Y0140697D02*
X0490367Y0140697D01*
X0490366Y0140689D02*
X0492813Y0140689D01*
X0492814Y0140680D02*
X0490365Y0140680D01*
X0490364Y0140672D02*
X0492815Y0140672D01*
X0492816Y0140663D02*
X0490363Y0140663D01*
X0490362Y0140655D02*
X0492817Y0140655D01*
X0492818Y0140646D02*
X0490361Y0140646D01*
X0490360Y0140638D02*
X0492819Y0140638D01*
X0492820Y0140629D02*
X0490359Y0140629D01*
X0490358Y0140620D02*
X0492821Y0140620D01*
X0492822Y0140612D02*
X0490357Y0140612D01*
X0490356Y0140603D02*
X0492823Y0140603D01*
X0492824Y0140595D02*
X0490355Y0140595D01*
X0490354Y0140586D02*
X0492825Y0140586D01*
X0492826Y0140578D02*
X0490353Y0140578D01*
X0490352Y0140569D02*
X0492827Y0140569D01*
X0492828Y0140561D02*
X0490351Y0140561D01*
X0490350Y0140552D02*
X0492829Y0140552D01*
X0492830Y0140544D02*
X0490349Y0140544D01*
X0490349Y0140535D02*
X0492831Y0140535D01*
X0492832Y0140527D02*
X0490348Y0140527D01*
X0490347Y0140518D02*
X0492833Y0140518D01*
X0492833Y0140510D02*
X0490346Y0140510D01*
X0490345Y0140501D02*
X0492834Y0140501D01*
X0492835Y0140493D02*
X0490344Y0140493D01*
X0490343Y0140484D02*
X0492836Y0140484D01*
X0492837Y0140476D02*
X0490342Y0140476D01*
X0490341Y0140467D02*
X0492838Y0140467D01*
X0492839Y0140459D02*
X0490340Y0140459D01*
X0490340Y0140450D02*
X0492839Y0140450D01*
X0492838Y0140442D02*
X0490341Y0140442D01*
X0490342Y0140433D02*
X0492837Y0140433D01*
X0492836Y0140425D02*
X0490343Y0140425D01*
X0490344Y0140416D02*
X0492835Y0140416D01*
X0492834Y0140408D02*
X0490345Y0140408D01*
X0490346Y0140399D02*
X0492833Y0140399D01*
X0492832Y0140391D02*
X0490347Y0140391D01*
X0490348Y0140382D02*
X0492831Y0140382D01*
X0492830Y0140374D02*
X0490349Y0140374D01*
X0490350Y0140365D02*
X0492829Y0140365D01*
X0492828Y0140357D02*
X0490351Y0140357D01*
X0490352Y0140348D02*
X0492827Y0140348D01*
X0492826Y0140340D02*
X0490353Y0140340D01*
X0490354Y0140331D02*
X0492826Y0140331D01*
X0492825Y0140322D02*
X0490355Y0140322D01*
X0490356Y0140314D02*
X0492824Y0140314D01*
X0492823Y0140305D02*
X0490356Y0140305D01*
X0490357Y0140297D02*
X0492822Y0140297D01*
X0492821Y0140288D02*
X0490358Y0140288D01*
X0490359Y0140280D02*
X0492820Y0140280D01*
X0492819Y0140271D02*
X0490360Y0140271D01*
X0490361Y0140263D02*
X0492818Y0140263D01*
X0492817Y0140254D02*
X0490362Y0140254D01*
X0490363Y0140246D02*
X0492816Y0140246D01*
X0492815Y0140237D02*
X0490364Y0140237D01*
X0490365Y0140229D02*
X0492814Y0140229D01*
X0492813Y0140220D02*
X0490366Y0140220D01*
X0490367Y0140212D02*
X0492812Y0140212D01*
X0492811Y0140203D02*
X0490368Y0140203D01*
X0490369Y0140195D02*
X0492810Y0140195D01*
X0492805Y0140169D02*
X0490374Y0140169D01*
X0490377Y0140161D02*
X0492802Y0140161D01*
X0492799Y0140152D02*
X0490380Y0140152D01*
X0490383Y0140144D02*
X0492796Y0140144D01*
X0492793Y0140135D02*
X0490386Y0140135D01*
X0490389Y0140127D02*
X0492790Y0140127D01*
X0492787Y0140118D02*
X0490392Y0140118D01*
X0490395Y0140110D02*
X0492784Y0140110D01*
X0492781Y0140101D02*
X0490398Y0140101D01*
X0490401Y0140093D02*
X0492779Y0140093D01*
X0492776Y0140084D02*
X0490404Y0140084D01*
X0490407Y0140076D02*
X0492773Y0140076D01*
X0492770Y0140067D02*
X0490410Y0140067D01*
X0490413Y0140059D02*
X0492767Y0140059D01*
X0492764Y0140050D02*
X0490416Y0140050D01*
X0490419Y0140042D02*
X0492761Y0140042D01*
X0492758Y0140033D02*
X0490421Y0140033D01*
X0490424Y0140025D02*
X0492755Y0140025D01*
X0492752Y0140016D02*
X0490427Y0140016D01*
X0490430Y0140007D02*
X0492749Y0140007D01*
X0492746Y0139999D02*
X0490433Y0139999D01*
X0490436Y0139990D02*
X0492743Y0139990D01*
X0492740Y0139982D02*
X0490439Y0139982D01*
X0490442Y0139973D02*
X0492737Y0139973D01*
X0492734Y0139965D02*
X0490445Y0139965D01*
X0490448Y0139956D02*
X0492731Y0139956D01*
X0492728Y0139948D02*
X0490451Y0139948D01*
X0490454Y0139939D02*
X0492725Y0139939D01*
X0492722Y0139931D02*
X0490457Y0139931D01*
X0490460Y0139922D02*
X0492719Y0139922D01*
X0492716Y0139914D02*
X0490463Y0139914D01*
X0490468Y0139905D02*
X0492711Y0139905D01*
X0492705Y0139897D02*
X0490474Y0139897D01*
X0490479Y0139888D02*
X0492700Y0139888D01*
X0492695Y0139880D02*
X0490484Y0139880D01*
X0490490Y0139871D02*
X0492689Y0139871D01*
X0492684Y0139863D02*
X0490495Y0139863D01*
X0490501Y0139854D02*
X0492679Y0139854D01*
X0492673Y0139846D02*
X0490506Y0139846D01*
X0490511Y0139837D02*
X0492668Y0139837D01*
X0492663Y0139829D02*
X0490517Y0139829D01*
X0490522Y0139820D02*
X0492657Y0139820D01*
X0492652Y0139812D02*
X0490527Y0139812D01*
X0490533Y0139803D02*
X0492647Y0139803D01*
X0492641Y0139795D02*
X0490538Y0139795D01*
X0490543Y0139786D02*
X0492636Y0139786D01*
X0492630Y0139778D02*
X0490549Y0139778D01*
X0490554Y0139769D02*
X0492625Y0139769D01*
X0492620Y0139761D02*
X0490559Y0139761D01*
X0490565Y0139752D02*
X0492614Y0139752D01*
X0492609Y0139744D02*
X0490570Y0139744D01*
X0490575Y0139735D02*
X0492604Y0139735D01*
X0492598Y0139727D02*
X0490581Y0139727D01*
X0490586Y0139718D02*
X0492593Y0139718D01*
X0492588Y0139709D02*
X0490591Y0139709D01*
X0490597Y0139701D02*
X0492582Y0139701D01*
X0492577Y0139692D02*
X0490602Y0139692D01*
X0490608Y0139684D02*
X0492572Y0139684D01*
X0492566Y0139675D02*
X0490613Y0139675D01*
X0490622Y0139667D02*
X0492557Y0139667D01*
X0492549Y0139658D02*
X0490630Y0139658D01*
X0490639Y0139650D02*
X0492540Y0139650D01*
X0492532Y0139641D02*
X0490647Y0139641D01*
X0490656Y0139633D02*
X0492523Y0139633D01*
X0492515Y0139624D02*
X0490664Y0139624D01*
X0490673Y0139616D02*
X0492506Y0139616D01*
X0492498Y0139607D02*
X0490681Y0139607D01*
X0490690Y0139599D02*
X0492489Y0139599D01*
X0492481Y0139590D02*
X0490698Y0139590D01*
X0490707Y0139582D02*
X0492472Y0139582D01*
X0492464Y0139573D02*
X0490715Y0139573D01*
X0490724Y0139565D02*
X0492455Y0139565D01*
X0492447Y0139556D02*
X0490732Y0139556D01*
X0490741Y0139548D02*
X0492438Y0139548D01*
X0492430Y0139539D02*
X0490749Y0139539D01*
X0490758Y0139531D02*
X0492421Y0139531D01*
X0492413Y0139522D02*
X0490766Y0139522D01*
X0490775Y0139514D02*
X0492404Y0139514D01*
X0492396Y0139505D02*
X0490783Y0139505D01*
X0490792Y0139497D02*
X0492387Y0139497D01*
X0492379Y0139488D02*
X0490800Y0139488D01*
X0490809Y0139480D02*
X0492370Y0139480D01*
X0492357Y0139471D02*
X0490822Y0139471D01*
X0490835Y0139463D02*
X0492344Y0139463D01*
X0492330Y0139454D02*
X0490849Y0139454D01*
X0490862Y0139446D02*
X0492317Y0139446D01*
X0492303Y0139437D02*
X0490876Y0139437D01*
X0490890Y0139429D02*
X0492290Y0139429D01*
X0492276Y0139420D02*
X0490903Y0139420D01*
X0490917Y0139412D02*
X0492262Y0139412D01*
X0492249Y0139403D02*
X0490930Y0139403D01*
X0490944Y0139394D02*
X0492235Y0139394D01*
X0492222Y0139386D02*
X0490957Y0139386D01*
X0490971Y0139377D02*
X0492208Y0139377D01*
X0492195Y0139369D02*
X0490984Y0139369D01*
X0490998Y0139360D02*
X0492181Y0139360D01*
X0492168Y0139352D02*
X0491012Y0139352D01*
X0491025Y0139343D02*
X0492154Y0139343D01*
X0492141Y0139335D02*
X0491039Y0139335D01*
X0491056Y0139326D02*
X0492123Y0139326D01*
X0492099Y0139318D02*
X0491080Y0139318D01*
X0491105Y0139309D02*
X0492074Y0139309D01*
X0492050Y0139301D02*
X0491129Y0139301D01*
X0491153Y0139292D02*
X0492026Y0139292D01*
X0492001Y0139284D02*
X0491178Y0139284D01*
X0491202Y0139275D02*
X0491977Y0139275D01*
X0491953Y0139267D02*
X0491226Y0139267D01*
X0491251Y0139258D02*
X0491928Y0139258D01*
X0491904Y0139250D02*
X0491275Y0139250D01*
X0491299Y0139241D02*
X0491880Y0139241D01*
X0491829Y0139233D02*
X0491350Y0139233D01*
X0491425Y0139224D02*
X0491754Y0139224D01*
X0491678Y0139216D02*
X0491501Y0139216D01*
X0491576Y0139207D02*
X0491603Y0139207D01*
D17*
X0523153Y0260611D02*
X0523653Y0260611D01*
X0523904Y0260862D01*
X0524376Y0260611D02*
X0525377Y0260611D01*
X0524376Y0261612D01*
X0524376Y0261862D01*
X0524626Y0262113D01*
X0525127Y0262113D01*
X0525377Y0261862D01*
X0525849Y0261862D02*
X0525849Y0261362D01*
X0526099Y0261112D01*
X0526850Y0261112D01*
X0526350Y0261112D02*
X0525849Y0260611D01*
X0526850Y0260611D02*
X0526850Y0262113D01*
X0526099Y0262113D01*
X0525849Y0261862D01*
X0523904Y0261862D02*
X0523653Y0262113D01*
X0523153Y0262113D01*
X0522903Y0261862D01*
X0522903Y0261612D01*
X0523153Y0261362D01*
X0522903Y0261112D01*
X0522903Y0260862D01*
X0523153Y0260611D01*
X0523153Y0261362D02*
X0523403Y0261362D01*
X0517524Y0274015D02*
X0517524Y0274765D01*
X0517273Y0275015D01*
X0516773Y0275015D01*
X0516523Y0274765D01*
X0516523Y0274015D01*
X0516523Y0274515D02*
X0516022Y0275015D01*
X0516022Y0275488D02*
X0517023Y0276489D01*
X0517273Y0276489D01*
X0517524Y0276238D01*
X0517524Y0275738D01*
X0517273Y0275488D01*
X0516022Y0275488D02*
X0516022Y0276489D01*
X0516022Y0276961D02*
X0517023Y0277962D01*
X0517273Y0277962D01*
X0517524Y0277712D01*
X0517524Y0277211D01*
X0517273Y0276961D01*
X0516022Y0276961D02*
X0516022Y0277962D01*
X0516022Y0274015D02*
X0517524Y0274015D01*
X0517421Y0293719D02*
X0517421Y0294470D01*
X0517171Y0294720D01*
X0516671Y0294720D01*
X0516420Y0294470D01*
X0516420Y0293719D01*
X0515920Y0293719D02*
X0517421Y0293719D01*
X0516420Y0294220D02*
X0515920Y0294720D01*
X0515920Y0295193D02*
X0516921Y0296193D01*
X0517171Y0296193D01*
X0517421Y0295943D01*
X0517421Y0295443D01*
X0517171Y0295193D01*
X0515920Y0295193D02*
X0515920Y0296193D01*
X0516170Y0296666D02*
X0517171Y0297667D01*
X0516170Y0297667D01*
X0515920Y0297416D01*
X0515920Y0296916D01*
X0516170Y0296666D01*
X0517171Y0296666D01*
X0517421Y0296916D01*
X0517421Y0297416D01*
X0517171Y0297667D01*
X0523163Y0308336D02*
X0524163Y0308336D01*
X0524636Y0308336D02*
X0525637Y0308336D01*
X0524636Y0309337D01*
X0524636Y0309587D01*
X0524886Y0309837D01*
X0525386Y0309837D01*
X0525637Y0309587D01*
X0526109Y0309587D02*
X0526109Y0309086D01*
X0526359Y0308836D01*
X0527110Y0308836D01*
X0527110Y0308336D02*
X0527110Y0309837D01*
X0526359Y0309837D01*
X0526109Y0309587D01*
X0526610Y0308836D02*
X0526109Y0308336D01*
X0524163Y0309337D02*
X0523663Y0309837D01*
X0523663Y0308336D01*
X0539416Y0297400D02*
X0539416Y0296399D01*
X0539416Y0295927D02*
X0539917Y0295426D01*
X0539416Y0295176D02*
X0539666Y0294926D01*
X0540667Y0294926D01*
X0540917Y0295176D01*
X0540917Y0295677D01*
X0540667Y0295927D01*
X0539666Y0295927D01*
X0539416Y0295677D01*
X0539416Y0295176D01*
X0540417Y0296399D02*
X0540917Y0296900D01*
X0539416Y0296900D01*
X0539778Y0282400D02*
X0539778Y0281399D01*
X0540779Y0282400D01*
X0541029Y0282400D01*
X0541280Y0282150D01*
X0541280Y0281649D01*
X0541029Y0281399D01*
X0541029Y0280927D02*
X0540029Y0280927D01*
X0539778Y0280677D01*
X0539778Y0280176D01*
X0540029Y0279926D01*
X0541029Y0279926D01*
X0541280Y0280176D01*
X0541280Y0280677D01*
X0541029Y0280927D01*
X0540279Y0280426D02*
X0539778Y0280927D01*
D18*
X0136072Y0092653D02*
X0136074Y0092814D01*
X0136080Y0092974D01*
X0136090Y0093135D01*
X0136104Y0093295D01*
X0136122Y0093455D01*
X0136143Y0093614D01*
X0136169Y0093773D01*
X0136199Y0093931D01*
X0136232Y0094088D01*
X0136270Y0094245D01*
X0136311Y0094400D01*
X0136356Y0094554D01*
X0136405Y0094707D01*
X0136458Y0094859D01*
X0136514Y0095010D01*
X0136575Y0095159D01*
X0136638Y0095307D01*
X0136706Y0095453D01*
X0136777Y0095597D01*
X0136851Y0095739D01*
X0136929Y0095880D01*
X0137011Y0096018D01*
X0137096Y0096155D01*
X0137184Y0096289D01*
X0137276Y0096421D01*
X0137371Y0096551D01*
X0137469Y0096679D01*
X0137570Y0096804D01*
X0137674Y0096926D01*
X0137781Y0097046D01*
X0137891Y0097163D01*
X0138004Y0097278D01*
X0138120Y0097389D01*
X0138239Y0097498D01*
X0138360Y0097603D01*
X0138484Y0097706D01*
X0138610Y0097806D01*
X0138738Y0097902D01*
X0138869Y0097995D01*
X0139003Y0098085D01*
X0139138Y0098172D01*
X0139276Y0098255D01*
X0139415Y0098335D01*
X0139557Y0098411D01*
X0139700Y0098484D01*
X0139845Y0098553D01*
X0139992Y0098619D01*
X0140140Y0098681D01*
X0140290Y0098739D01*
X0140441Y0098794D01*
X0140594Y0098845D01*
X0140748Y0098892D01*
X0140903Y0098935D01*
X0141059Y0098974D01*
X0141215Y0099010D01*
X0141373Y0099041D01*
X0141531Y0099069D01*
X0141690Y0099093D01*
X0141850Y0099113D01*
X0142010Y0099129D01*
X0142170Y0099141D01*
X0142331Y0099149D01*
X0142492Y0099153D01*
X0142652Y0099153D01*
X0142813Y0099149D01*
X0142974Y0099141D01*
X0143134Y0099129D01*
X0143294Y0099113D01*
X0143454Y0099093D01*
X0143613Y0099069D01*
X0143771Y0099041D01*
X0143929Y0099010D01*
X0144085Y0098974D01*
X0144241Y0098935D01*
X0144396Y0098892D01*
X0144550Y0098845D01*
X0144703Y0098794D01*
X0144854Y0098739D01*
X0145004Y0098681D01*
X0145152Y0098619D01*
X0145299Y0098553D01*
X0145444Y0098484D01*
X0145587Y0098411D01*
X0145729Y0098335D01*
X0145868Y0098255D01*
X0146006Y0098172D01*
X0146141Y0098085D01*
X0146275Y0097995D01*
X0146406Y0097902D01*
X0146534Y0097806D01*
X0146660Y0097706D01*
X0146784Y0097603D01*
X0146905Y0097498D01*
X0147024Y0097389D01*
X0147140Y0097278D01*
X0147253Y0097163D01*
X0147363Y0097046D01*
X0147470Y0096926D01*
X0147574Y0096804D01*
X0147675Y0096679D01*
X0147773Y0096551D01*
X0147868Y0096421D01*
X0147960Y0096289D01*
X0148048Y0096155D01*
X0148133Y0096018D01*
X0148215Y0095880D01*
X0148293Y0095739D01*
X0148367Y0095597D01*
X0148438Y0095453D01*
X0148506Y0095307D01*
X0148569Y0095159D01*
X0148630Y0095010D01*
X0148686Y0094859D01*
X0148739Y0094707D01*
X0148788Y0094554D01*
X0148833Y0094400D01*
X0148874Y0094245D01*
X0148912Y0094088D01*
X0148945Y0093931D01*
X0148975Y0093773D01*
X0149001Y0093614D01*
X0149022Y0093455D01*
X0149040Y0093295D01*
X0149054Y0093135D01*
X0149064Y0092974D01*
X0149070Y0092814D01*
X0149072Y0092653D01*
X0149070Y0092492D01*
X0149064Y0092332D01*
X0149054Y0092171D01*
X0149040Y0092011D01*
X0149022Y0091851D01*
X0149001Y0091692D01*
X0148975Y0091533D01*
X0148945Y0091375D01*
X0148912Y0091218D01*
X0148874Y0091061D01*
X0148833Y0090906D01*
X0148788Y0090752D01*
X0148739Y0090599D01*
X0148686Y0090447D01*
X0148630Y0090296D01*
X0148569Y0090147D01*
X0148506Y0089999D01*
X0148438Y0089853D01*
X0148367Y0089709D01*
X0148293Y0089567D01*
X0148215Y0089426D01*
X0148133Y0089288D01*
X0148048Y0089151D01*
X0147960Y0089017D01*
X0147868Y0088885D01*
X0147773Y0088755D01*
X0147675Y0088627D01*
X0147574Y0088502D01*
X0147470Y0088380D01*
X0147363Y0088260D01*
X0147253Y0088143D01*
X0147140Y0088028D01*
X0147024Y0087917D01*
X0146905Y0087808D01*
X0146784Y0087703D01*
X0146660Y0087600D01*
X0146534Y0087500D01*
X0146406Y0087404D01*
X0146275Y0087311D01*
X0146141Y0087221D01*
X0146006Y0087134D01*
X0145868Y0087051D01*
X0145729Y0086971D01*
X0145587Y0086895D01*
X0145444Y0086822D01*
X0145299Y0086753D01*
X0145152Y0086687D01*
X0145004Y0086625D01*
X0144854Y0086567D01*
X0144703Y0086512D01*
X0144550Y0086461D01*
X0144396Y0086414D01*
X0144241Y0086371D01*
X0144085Y0086332D01*
X0143929Y0086296D01*
X0143771Y0086265D01*
X0143613Y0086237D01*
X0143454Y0086213D01*
X0143294Y0086193D01*
X0143134Y0086177D01*
X0142974Y0086165D01*
X0142813Y0086157D01*
X0142652Y0086153D01*
X0142492Y0086153D01*
X0142331Y0086157D01*
X0142170Y0086165D01*
X0142010Y0086177D01*
X0141850Y0086193D01*
X0141690Y0086213D01*
X0141531Y0086237D01*
X0141373Y0086265D01*
X0141215Y0086296D01*
X0141059Y0086332D01*
X0140903Y0086371D01*
X0140748Y0086414D01*
X0140594Y0086461D01*
X0140441Y0086512D01*
X0140290Y0086567D01*
X0140140Y0086625D01*
X0139992Y0086687D01*
X0139845Y0086753D01*
X0139700Y0086822D01*
X0139557Y0086895D01*
X0139415Y0086971D01*
X0139276Y0087051D01*
X0139138Y0087134D01*
X0139003Y0087221D01*
X0138869Y0087311D01*
X0138738Y0087404D01*
X0138610Y0087500D01*
X0138484Y0087600D01*
X0138360Y0087703D01*
X0138239Y0087808D01*
X0138120Y0087917D01*
X0138004Y0088028D01*
X0137891Y0088143D01*
X0137781Y0088260D01*
X0137674Y0088380D01*
X0137570Y0088502D01*
X0137469Y0088627D01*
X0137371Y0088755D01*
X0137276Y0088885D01*
X0137184Y0089017D01*
X0137096Y0089151D01*
X0137011Y0089288D01*
X0136929Y0089426D01*
X0136851Y0089567D01*
X0136777Y0089709D01*
X0136706Y0089853D01*
X0136638Y0089999D01*
X0136575Y0090147D01*
X0136514Y0090296D01*
X0136458Y0090447D01*
X0136405Y0090599D01*
X0136356Y0090752D01*
X0136311Y0090906D01*
X0136270Y0091061D01*
X0136232Y0091218D01*
X0136199Y0091375D01*
X0136169Y0091533D01*
X0136143Y0091692D01*
X0136122Y0091851D01*
X0136104Y0092011D01*
X0136090Y0092171D01*
X0136080Y0092332D01*
X0136074Y0092492D01*
X0136072Y0092653D01*
M02*
